<?xml version="1.0" encoding="UTF-8" standalone="no"?>
<!DOCTYPE svg  PUBLIC '-//W3C//DTD SVG 1.1//EN'  'http://www.w3.org/Graphics/SVG/1.1/DTD/svg11.dtd'>
<svg xmlns="http://www.w3.org/2000/svg">
<defs>
<font id="LoveloBlack-Regular" horiz-adv-x="671">
<font-face underline-position="-50" font-weight="900" descent="-200" panose-1="2 0 0 0 0 0 0 0 0 0" units-per-em="1000" unicode-range="U+0020-20AC" bbox="-30 -301 903 975" x-height="715" underline-thickness="50" font-family="LoveloBlack" ascent="800" cap-height="715"/>
<missing-glyph horiz-adv-x="1000"/>
<glyph glyph-name=".notdef" horiz-adv-x="1000"/>
<glyph glyph-name=".null" horiz-adv-x="0"/>
<glyph glyph-name="nonmarkingreturn" horiz-adv-x="333"/>
<glyph glyph-name="space" horiz-adv-x="284" unicode=" "/>
<glyph glyph-name="exclam" horiz-adv-x="276" unicode="!" d="M64 450v265h154v-265q-14 -184 -20 -236h-113q-4 31 -7.5 71t-7.5 89t-6 76zM223 73q0 -37 -24.5 -58t-57.5 -21t-57.5 21t-24.5 58t24.5 58t57.5 21t57.5 -21t24.5 -58z"/>
<glyph glyph-name="quotedbl" horiz-adv-x="390" unicode='&quot;' d="M236 494v220h130l-15 -220h-115zM36 494v220h130l-15 -220h-115z"/>
<glyph glyph-name="dollar" horiz-adv-x="529" unicode="$" d="M47 46l18 150q82 -58 184 -58q4 0 11 0.5t9 0.5q31 2 52.5 21t21.5 45v6q-2 28 -21 44.5t-53 28.5q-99 36 -155.5 86t-56.5 132q0 75 40.5 132t108.5 77v96h127v-90q46 -7 104 -27l-18 -138q-75 30 -132 30h-14q-34 -2 -52.5 -22.5t-18.5 -50.5v-7q3 -27 23.5 -43.5 t56.5 -28.5q207 -76 207 -219q0 -76 -41.5 -132t-114.5 -76v-97h-127v91q-84 10 -159 49z"/>
<glyph glyph-name="quotesingle" horiz-adv-x="200" unicode="&apos;" d="M36 494v220h130l-15 -220h-115z"/>
<glyph glyph-name="comma" horiz-adv-x="240" unicode="," d="M57 110h148l-78 -226h-112z"/>
<glyph glyph-name="hyphen" horiz-adv-x="454" unicode="-" d="M38 275v133h364v-133h-364z"/>
<glyph glyph-name="period" horiz-adv-x="244" unicode="." d="M110 154q39 0 60 -23.5t21 -56.5t-21.5 -57t-59.5 -24t-59.5 24t-21.5 57q0 32 21.5 56t59.5 24z"/>
<glyph glyph-name="slash" horiz-adv-x="422" unicode="/" d="M148 0h-148l281 715h148z"/>
<glyph glyph-name="zero" horiz-adv-x="597" unicode="0" d="M297 125q108 0 108 233t-108 233q-106 0 -106 -233t106 -233zM297 -10q-85 0 -141.5 51t-80 131t-23.5 186t23.5 186t80 130.5t141.5 50.5q86 0 142.5 -50.5t80 -130.5t23.5 -186t-23.5 -186t-80 -131t-142.5 -51z"/>
<glyph glyph-name="one" horiz-adv-x="370" unicode="1" d="M30 571v143h259v-714h-142v571h-117z"/>
<glyph glyph-name="two" horiz-adv-x="521" unicode="2" d="M273 424q17 24 26 45t9 29l1 9q0 30 -21 50t-53 22h-9q-41 0 -88 -19.5t-68 -37.5l-35 138q39 29 95 47t107 18h10q103 -5 161 -60.5t58 -137.5q0 -83 -59 -164l-141 -218h212v-145h-472z"/>
<glyph glyph-name="three" horiz-adv-x="500" unicode="3" d="M162 292l-3 146h69q32 0 53 18t21 47q0 43 -34 62t-85 19q-69 0 -115 -23l-22 135q74 29 169 29h19q97 -6 159 -68.5t62 -155.5q0 -87 -76 -136q40 -23 61 -65t22 -87v-7q0 -91 -55.5 -149t-155.5 -63q-3 0 -10.5 -0.5t-11.5 -0.5q-51 0 -109.5 10t-90.5 23l16 145 q25 -12 70.5 -22.5t86.5 -10.5q108 0 108 73q0 32 -23.5 56.5t-55.5 24.5h-69z"/>
<glyph glyph-name="four" horiz-adv-x="540" unicode="4" d="M437 1h-143v179h-298l203 535h150l-146 -392h91v121l143 96v-217h78v-143h-78v-179z"/>
<glyph glyph-name="five" horiz-adv-x="525" unicode="5" d="M211 453q140 -12 206 -67.5t66 -175.5q0 -91 -58 -151t-157 -65q-3 0 -10.5 -0.5t-12.5 -0.5q-108 0 -205 33l13 142q104 -35 173 -35q59 0 86 23t26 57q0 63 -54 88.5t-217 37.5v376h364v-137h-220v-125z"/>
<glyph glyph-name="six" horiz-adv-x="507" unicode="6" d="M325 206q1 36 -21 56.5t-54 20.5q-30 0 -52.5 -19.5t-22.5 -54.5t22.5 -54.5t52.5 -19.5q29 0 51.5 18.5t23.5 52.5zM258 412h2q95 0 150.5 -54.5t55.5 -152.5q0 -90 -57.5 -151.5t-155.5 -61.5h-4q-96 2 -152.5 64t-56.5 151q0 55 22 108l166 399h155z"/>
<glyph glyph-name="seven" horiz-adv-x="488" unicode="7" d="M61 0l243 579h-288v135h491l-292 -714h-154z"/>
<glyph glyph-name="eight" horiz-adv-x="522" unicode="8" d="M254 134q33 0 55.5 22.5t22.5 54.5q0 33 -22 55t-56 22t-56.5 -22.5t-22.5 -54.5t23 -54.5t56 -22.5zM254 429q32 0 54.5 20t22.5 55q0 36 -22.5 55.5t-54.5 19.5t-55 -19.5t-23 -55.5q0 -35 23 -55t55 -20zM470 505q0 -96 -68 -147q69 -51 69 -147q0 -104 -60.5 -161.5 t-154.5 -57.5q-95 0 -156.5 57.5t-61.5 161.5q0 97 68 147q-68 52 -68 147q0 102 64 160t151 58t152 -58t65 -160z"/>
<glyph glyph-name="nine" horiz-adv-x="512" unicode="9" d="M184 503q0 -33 21.5 -51.5t50.5 -18.5t50 18.5t21 51.5v1q0 33 -21 52t-50 19t-50.5 -19t-21.5 -53zM247 301h-2q-94 0 -149.5 54.5t-55.5 152.5q0 90 57 151.5t154 61.5h6q96 -1 152.5 -63t56.5 -152q0 -55 -22 -108l-167 -398h-154z"/>
<glyph glyph-name="colon" horiz-adv-x="231" unicode=":" d="M110 446q39 0 60 -23.5t21 -56.5t-21.5 -57t-59.5 -24t-59.5 24t-21.5 57q0 32 21.5 56t59.5 24zM110 154q39 0 60 -23.5t21 -56.5t-21.5 -57t-59.5 -24t-59.5 24t-21.5 57q0 32 21.5 56t59.5 24z"/>
<glyph glyph-name="semicolon" horiz-adv-x="231" unicode=";" d="M46 104h148l-78 -226h-112zM110 446q39 0 60 -23.5t21 -56.5t-21.5 -57t-59.5 -24t-59.5 24t-21.5 57q0 32 21.5 56t59.5 24z"/>
<glyph glyph-name="question" horiz-adv-x="480" unicode="?" d="M316 69q0 -38 -25 -58.5t-59 -20.5t-58.5 20.5t-24.5 58.5t24.5 59.5t58.5 21.5t59 -21.5t25 -59.5zM302 206h-142q3 56 41 122.5t73.5 116t35.5 65.5q0 2 0.5 5.5t0.5 4.5q0 34 -22 53.5t-52 19.5q-32 0 -55 -21.5t-23 -61.5h-137v14q0 96 64.5 150t152.5 54 q86 0 149 -52.5t63 -147.5q0 -46 -21.5 -88t-47.5 -70.5t-50.5 -72.5t-29.5 -91z"/>
<glyph glyph-name="A" horiz-adv-x="653" unicode="A" d="M258 211h132l-65 186zM16 0l301 741h15l301 -741h-161l-29 77h-237l-28 -77h-162z"/>
<glyph glyph-name="B" horiz-adv-x="621" unicode="B" d="M224 286v-143h86h41q31 0 51.5 21t20.5 51t-20.5 50.5t-51.5 20.5h-127zM80 0v716h283q93 0 148 -58.5t55 -151.5v-7q-4 -98 -66 -141q35 -24 54.5 -62t19.5 -81q0 -34 -51 -68.5t-123.5 -59.5t-145 -45.5t-123.5 -31.5zM224 573v-144h86h41q30 0 48 21t18 51 q0 31 -18 51.5t-48 20.5h-127z"/>
<glyph glyph-name="C" horiz-adv-x="602" unicode="C" d="M535 549q-60 31 -124 31q-101 0 -156.5 -64.5t-55.5 -153.5t55.5 -153.5t156.5 -64.5q76 0 138 32l19 -148q-73 -30 -157 -30q-116 0 -200.5 54t-123.5 134.5t-39 174.5q0 70 23 134t67 115.5t114.5 82.5t158.5 31q78 0 141 -28z"/>
<glyph glyph-name="D" horiz-adv-x="704" unicode="D" d="M293 572h-70v-429h70q98 0 153.5 64t55.5 151t-55 150.5t-154 63.5zM293 715q86 0 155.5 -30.5t112.5 -81t66 -113.5t23 -132q0 -93 -38.5 -172.5t-121.5 -132.5t-197 -53h-213v715h213z"/>
<glyph glyph-name="E" horiz-adv-x="504" unicode="E" d="M450 0h-370v715h358v-143h-215v-143h188v-143h-188v-143h227v-143z"/>
<glyph glyph-name="F" horiz-adv-x="475" unicode="F" d="M437 572h-214v-143h182v-143h-182v-286h-143v715h357v-143z"/>
<glyph glyph-name="G" horiz-adv-x="673" unicode="G" d="M596 44q-85 -48 -185 -48q-86 0 -157 31t-115 82.5t-67.5 115.5t-23.5 133q0 92 38.5 171t123 133.5t201.5 58.5h14q75 0 153 -26l-17 -145q-61 26 -137 26h-13q-101 -4 -156.5 -68t-55.5 -151q0 -88 56.5 -153t155.5 -65q14 0 40 4v215h145v-314z"/>
<glyph glyph-name="H" horiz-adv-x="661" unicode="H" d="M580 0h-143v286h-214v-286h-143v715h143v-286h214v286h143v-715z"/>
<glyph glyph-name="I" horiz-adv-x="304" unicode="I" d="M223 0h-143v715h143v-715z"/>
<glyph glyph-name="J" horiz-adv-x="465" unicode="J" d="M32 0v143h137q31 0 51.5 21t20.5 51v500h145v-500q0 -215 -213 -215h-141z"/>
<glyph glyph-name="K" horiz-adv-x="604" unicode="K" d="M80 0v715h143v-285l180 285h167l-232 -353l252 -362h-177l-190 280v-280h-143z"/>
<glyph glyph-name="L" horiz-adv-x="493" unicode="L" d="M80 715h143v-572h227v-143h-370v715z"/>
<glyph glyph-name="M" horiz-adv-x="816" unicode="M" d="M408 412l282 314h45v-726h-145l1 399l-183 -192l-183 192v-399h-145v726h46z"/>
<glyph glyph-name="N" horiz-adv-x="704" unicode="N" d="M223 389v-389h-143v730h38l361 -420v404h144v-729h-38z"/>
<glyph glyph-name="O" horiz-adv-x="847" unicode="O" d="M424 138q101 0 157.5 65.5t56.5 155.5t-56.5 155.5t-157.5 65.5t-157.5 -65.5t-56.5 -155.5t56.5 -155.5t157.5 -65.5zM424 -10q-89 0 -161 31.5t-116.5 84t-68 117.5t-23.5 135t23.5 135.5t68 118t116.5 84t161 31.5t161 -31.5t116.5 -84t68 -118t23.5 -135.5 t-23.5 -135t-68 -117.5t-116.5 -84t-161 -31.5z"/>
<glyph glyph-name="P" horiz-adv-x="603" unicode="P" d="M223 412h126q34 0 53 24t19 56t-19 56t-53 24h-126v-160zM223 0h-143v714h281q98 0 153 -65.5t55 -154.5q0 -90 -55 -155.5t-153 -65.5h-138v-273z"/>
<glyph glyph-name="Q" horiz-adv-x="839" unicode="Q" d="M592 37q-76 -39 -177 -39q-87 0 -157 30.5t-113.5 82t-66.5 115t-23 132.5t23 132.5t66.5 115t113.5 82.5t157 31t157 -31t114 -82.5t67 -115.5t23 -133q0 -139 -85 -241l94 -120h-158zM376 303h169l50 -64q30 53 30 118q0 89 -55 153t-155 64q-99 0 -154 -64t-55 -152 t55 -152t154 -64q45 0 81 14z"/>
<glyph glyph-name="R" horiz-adv-x="613" unicode="R" d="M223 572v-160h126q34 0 53.5 24t19.5 56t-19.5 56t-53.5 24h-126zM598 0h-162l-144 273h-69v-273h-143v715h282q100 0 155.5 -64.5t55.5 -152.5q0 -70 -37 -127t-104 -76z"/>
<glyph glyph-name="S" horiz-adv-x="529" unicode="S" d="M47 46l18 150q82 -58 184 -58q4 0 11 0.5t9 0.5q31 2 52.5 21t21.5 45v6q-2 28 -21 44.5t-53 28.5q-99 36 -155.5 86t-56.5 132q0 90 56.5 152t145.5 66q3 0 11 0.5t13 0.5q66 0 154 -31l-18 -138q-75 30 -132 30h-14q-34 -2 -52.5 -22.5t-18.5 -50.5v-7 q3 -27 23.5 -43.5t56.5 -28.5q207 -76 207 -219q0 -91 -58.5 -151.5t-157.5 -65.5q-3 0 -9.5 -0.5t-10.5 -0.5q-104 0 -206 53z"/>
<glyph glyph-name="T" horiz-adv-x="547" unicode="T" d="M341 0h-143v572h-178v142h499v-142h-178v-572z"/>
<glyph glyph-name="U" d="M593 249q0 -120 -77 -187.5t-182 -67.5t-181.5 67.5t-76.5 187.5v466h143v-465q0 -53 34.5 -82.5t81.5 -29.5t81.5 29.5t34.5 82.5v465h142v-466z" unicode="U"/>
<glyph glyph-name="V" horiz-adv-x="637" unicode="V" d="M334 -15h-32l-296 730h165l95 -238l52 -148l51 143l96 243h165z"/>
<glyph glyph-name="W" horiz-adv-x="910" unicode="W" d="M324 -15h-25l-293 730h161l144 -365l140 358h7l140 -358l144 365h161l-292 -727h-26l-131 317z"/>
<glyph glyph-name="X" horiz-adv-x="631" unicode="X" d="M6 0l225 381l-194 335h173l108 -199l107 199h169l-195 -335l225 -381h-169l-137 245l-138 -245h-174z"/>
<glyph glyph-name="Y" horiz-adv-x="649" unicode="Y" d="M255 0v322l-249 393h174l146 -246l146 246h175l-250 -393v-322h-142z"/>
<glyph glyph-name="Z" horiz-adv-x="535" unicode="Z" d="M501 0h-479l258 576h-220v139h433q-86 -191 -258 -571h266v-144z"/>
<glyph glyph-name="grave" horiz-adv-x="351" unicode="`" d="M60 714h186l53 -141h-138z"/>
<glyph glyph-name="a" horiz-adv-x="653" unicode="a" d="M258 211h132l-65 186zM16 0l301 741h15l301 -741h-161l-29 77h-237l-28 -77h-162z"/>
<glyph glyph-name="b" horiz-adv-x="621" unicode="b" d="M224 286v-143h86h41q31 0 51.5 21t20.5 51t-20.5 50.5t-51.5 20.5h-127zM80 0v716h283q93 0 148 -58.5t55 -151.5v-7q-4 -98 -66 -141q35 -24 54.5 -62t19.5 -81q0 -34 -51 -68.5t-123.5 -59.5t-145 -45.5t-123.5 -31.5zM224 573v-144h86h41q30 0 48 21t18 51 q0 31 -18 51.5t-48 20.5h-127z"/>
<glyph glyph-name="c" horiz-adv-x="602" unicode="c" d="M535 549q-60 31 -124 31q-101 0 -156.5 -64.5t-55.5 -153.5t55.5 -153.5t156.5 -64.5q76 0 138 32l19 -148q-73 -30 -157 -30q-116 0 -200.5 54t-123.5 134.5t-39 174.5q0 70 23 134t67 115.5t114.5 82.5t158.5 31q78 0 141 -28z"/>
<glyph glyph-name="d" horiz-adv-x="704" unicode="d" d="M293 572h-70v-429h70q98 0 153.5 64t55.5 151t-55 150.5t-154 63.5zM293 715q86 0 155.5 -30.5t112.5 -81t66 -113.5t23 -132q0 -93 -38.5 -172.5t-121.5 -132.5t-197 -53h-213v715h213z"/>
<glyph glyph-name="e" horiz-adv-x="504" unicode="e" d="M450 0h-370v715h358v-143h-215v-143h188v-143h-188v-143h227v-143z"/>
<glyph glyph-name="f" horiz-adv-x="475" unicode="f" d="M437 572h-214v-143h182v-143h-182v-286h-143v715h357v-143z"/>
<glyph glyph-name="g" horiz-adv-x="673" unicode="g" d="M596 44q-85 -48 -185 -48q-86 0 -157 31t-115 82.5t-67.5 115.5t-23.5 133q0 92 38.5 171t123 133.5t201.5 58.5h14q75 0 153 -26l-17 -145q-61 26 -137 26h-13q-101 -4 -156.5 -68t-55.5 -151q0 -88 56.5 -153t155.5 -65q14 0 40 4v215h145v-314z"/>
<glyph glyph-name="h" horiz-adv-x="661" unicode="h" d="M580 0h-143v286h-214v-286h-143v715h143v-286h214v286h143v-715z"/>
<glyph glyph-name="i" horiz-adv-x="304" unicode="i" d="M223 0h-143v715h143v-715z"/>
<glyph glyph-name="j" horiz-adv-x="465" unicode="j" d="M32 0v143h137q31 0 52 21t21 51v500h142v-500q0 -89 -61.5 -152t-149.5 -63h-141z"/>
<glyph glyph-name="k" horiz-adv-x="604" unicode="k" d="M80 0v715h143v-285l180 285h167l-232 -353l252 -362h-177l-190 280v-280h-143z"/>
<glyph glyph-name="l" horiz-adv-x="493" unicode="l" d="M80 715h143v-572h227v-143h-370v715z"/>
<glyph glyph-name="m" horiz-adv-x="816" unicode="m" d="M408 412l282 314h45v-726h-145l1 399l-183 -192l-183 192v-399h-145v726h46z"/>
<glyph glyph-name="n" horiz-adv-x="704" unicode="n" d="M223 389v-389h-143v730h38l361 -420v404h144v-729h-38z"/>
<glyph glyph-name="o" horiz-adv-x="847" unicode="o" d="M424 138q101 0 157.5 65.5t56.5 155.5t-56.5 155.5t-157.5 65.5t-157.5 -65.5t-56.5 -155.5t56.5 -155.5t157.5 -65.5zM424 -10q-89 0 -161 31.5t-116.5 84t-68 117.5t-23.5 135t23.5 135.5t68 118t116.5 84t161 31.5t161 -31.5t116.5 -84t68 -118t23.5 -135.5 t-23.5 -135t-68 -117.5t-116.5 -84t-161 -31.5z"/>
<glyph glyph-name="p" horiz-adv-x="603" unicode="p" d="M223 412h126q34 0 53 24t19 56t-19 56t-53 24h-126v-160zM223 0h-143v714h281q98 0 153 -65.5t55 -154.5q0 -90 -55 -155.5t-153 -65.5h-138v-273z"/>
<glyph glyph-name="q" horiz-adv-x="839" unicode="q" d="M592 37q-76 -39 -177 -39q-87 0 -157 30.5t-113.5 82t-66.5 115t-23 132.5t23 132.5t66.5 115t113.5 82.5t157 31t157 -31t114 -82.5t67 -115.5t23 -133q0 -139 -85 -241l94 -120h-158zM376 303h169l50 -64q30 53 30 118q0 89 -55 153t-155 64q-99 0 -154 -64t-55 -152 t55 -152t154 -64q45 0 81 14z"/>
<glyph glyph-name="r" horiz-adv-x="613" unicode="r" d="M223 572v-160h126q34 0 53.5 24t19.5 56t-19.5 56t-53.5 24h-126zM598 0h-162l-144 273h-69v-273h-143v715h282q100 0 155.5 -64.5t55.5 -152.5q0 -70 -37 -127t-104 -76z"/>
<glyph glyph-name="s" horiz-adv-x="529" unicode="s" d="M47 46l18 150q82 -58 184 -58q4 0 11 0.5t9 0.5q31 2 52.5 21t21.5 45v6q-2 28 -21 44.5t-53 28.5q-99 36 -155.5 86t-56.5 132q0 90 56.5 152t145.5 66q3 0 11 0.5t13 0.5q66 0 154 -31l-18 -138q-75 30 -132 30h-14q-34 -2 -52.5 -22.5t-18.5 -50.5v-7 q3 -27 23.5 -43.5t56.5 -28.5q207 -76 207 -219q0 -91 -58.5 -151.5t-157.5 -65.5q-3 0 -9.5 -0.5t-10.5 -0.5q-104 0 -206 53z"/>
<glyph glyph-name="t" horiz-adv-x="547" unicode="t" d="M341 0h-143v572h-178v142h499v-142h-178v-572z"/>
<glyph glyph-name="u" d="M593 249q0 -120 -77 -187.5t-182 -67.5t-181.5 67.5t-76.5 187.5v466h143v-465q0 -53 34.5 -82.5t81.5 -29.5t81.5 29.5t34.5 82.5v465h142v-466z" unicode="u"/>
<glyph glyph-name="v" horiz-adv-x="637" unicode="v" d="M334 -15h-32l-296 730h165l95 -238l52 -148l51 143l96 243h165z"/>
<glyph glyph-name="w" horiz-adv-x="910" unicode="w" d="M324 -15h-25l-293 730h161l144 -365l140 358h7l140 -358l144 365h161l-292 -727h-26l-131 317z"/>
<glyph glyph-name="x" horiz-adv-x="631" unicode="x" d="M6 0l225 381l-194 335h173l108 -199l107 199h169l-195 -335l225 -381h-169l-137 245l-138 -245h-174z"/>
<glyph glyph-name="y" horiz-adv-x="649" unicode="y" d="M255 0v322l-249 393h174l146 -246l146 246h175l-250 -393v-322h-142z"/>
<glyph glyph-name="z" horiz-adv-x="535" unicode="z" d="M501 0h-479l258 576h-220v139h433q-86 -191 -258 -571h266v-144z"/>
<glyph glyph-name="exclamdown" horiz-adv-x="276" unicode="¡" d="M211 50v-265h-154v265q14 184 20 236h113q4 -31 7.5 -71t7.5 -89t6 -76zM52 427q0 37 24.5 58t57.5 21t57.5 -21t24.5 -58t-24.5 -58t-57.5 -21t-57.5 21t-24.5 58z"/>
<glyph glyph-name="yen" horiz-adv-x="649" unicode="¥" d="M397 0h-142v162h-138v101h138v45h-138v101h83l-194 306h174l146 -246l146 246h175l-195 -306h73v-101h-128v-45h128v-101h-128v-162z"/>
<glyph glyph-name="dieresis" horiz-adv-x="510" unicode="¨" d="M300 634q0 35 24 58.5t57 23.5q35 0 58.5 -23.5t23.5 -58.5q0 -34 -23.5 -57t-58.5 -24q-33 0 -57 23.5t-24 57.5zM53 634q0 35 24 58.5t57 23.5q35 0 58.5 -23.5t23.5 -58.5q0 -34 -23.5 -57.5t-58.5 -23.5q-34 1 -57.5 24t-23.5 57z"/>
<glyph glyph-name="macron" horiz-adv-x="367" unicode="¯" d="M50 583v131h264v-131h-264z"/>
<glyph glyph-name="acute" horiz-adv-x="319" unicode="´" d="M100 719h183l-101 -141h-135z"/>
<glyph glyph-name="periodcentered" horiz-adv-x="244" unicode="·" d="M110 424q39 0 60 -23.5t21 -56.5t-21.5 -57t-59.5 -24t-59.5 24t-21.5 57q0 32 21.5 56t59.5 24z"/>
<glyph glyph-name="cedilla" horiz-adv-x="394" unicode="¸" d="M28 -246l55 83q40 -28 76 -28q6 0 16 2q15 2 26 10t11 21q-1 22 -21.5 32.5t-49.5 10.5q-12 0 -32 -4l24 130h95l-8 -59q48 -4 78 -36.5t30 -77.5q0 -43 -30 -82q-40 -57 -122 -57q-77 0 -148 55z"/>
<glyph glyph-name="questiondown" horiz-adv-x="480" unicode="¿" d="M142 446q0 38 25 59t59 21t58.5 -21t24.5 -59t-24.5 -59.5t-58.5 -21.5t-59 21.5t-25 59.5zM156 309h142q-3 -56 -41 -122.5t-73.5 -116t-35.5 -65.5q0 -2 -0.5 -5.5t-0.5 -4.5q0 -34 22 -53.5t52 -19.5q32 0 55 21.5t23 61.5h137v-14q0 -96 -64.5 -150t-152.5 -54 q-86 0 -149 52.5t-63 147.5q0 46 21.5 88t47.5 70.5t50.5 72.5t29.5 91z"/>
<glyph glyph-name="Agrave" horiz-adv-x="653" unicode="À" d="M161 906h186l53 -141h-138zM258 211h132l-65 191zM304 724h41l288 -724h-161l-29 77h-237l-28 -77h-162z"/>
<glyph glyph-name="Aacute" horiz-adv-x="653" unicode="Á" d="M296 906h186l-101 -141h-138zM258 211h132l-65 191zM304 724h41l288 -724h-161l-29 77h-237l-28 -77h-162z"/>
<glyph glyph-name="Acircumflex" horiz-adv-x="653" unicode="Â" d="M511 759h-152l-37 47l-36 -47h-151l141 140h92zM258 211h132l-65 191zM304 724h41l288 -724h-161l-29 77h-237l-28 -77h-162z"/>
<glyph glyph-name="Atilde" horiz-adv-x="653" unicode="Ã" d="M240 768l-87 38q32 105 110 105h4q24 -1 59 -19t47 -18q21 0 36 29l86 -39q-14 -48 -42.5 -76t-68.5 -28h-4q-23 1 -58 19t-47 18q-22 0 -35 -29zM258 211h132l-65 191zM304 724h41l288 -724h-161l-29 77h-237l-28 -77h-162z"/>
<glyph glyph-name="Adieresis" horiz-adv-x="653" unicode="Ä" d="M367 826q0 35 24 58.5t57 23.5q35 0 58.5 -23.5t23.5 -58.5q0 -34 -23.5 -57t-58.5 -24q-33 0 -57 23.5t-24 57.5zM120 826q0 35 24 58.5t57 23.5q35 0 58.5 -23.5t23.5 -58.5q0 -34 -23.5 -57.5t-58.5 -23.5q-34 1 -57.5 24t-23.5 57zM258 211h132l-65 191zM304 724h41 l288 -724h-161l-29 77h-237l-28 -77h-162z"/>
<glyph glyph-name="Aring" horiz-adv-x="653" unicode="Å" d="M325 764q-25 0 -39 -15.5t-14 -36.5t14 -36.5t39 -15.5t39 16t14 37t-14 36t-39 15zM258 211h132l-65 186zM324 851q67 0 103.5 -40.5t36.5 -96.5q0 -38 -18.5 -71.5t-52.5 -51.5l240 -591h-161l-29 77h-237l-28 -77h-162l240 590q-35 17 -53 50.5t-18 72.5q0 56 36.5 97 t102.5 41z"/>
<glyph glyph-name="AE" horiz-adv-x="795" unicode="Æ" d="M296 243h108v257zM18 0l348 715h365v-140h-184v-144h156v-146h-156v-142h194v-143h-337v110h-165l-46 -110h-175z"/>
<glyph glyph-name="Ccedilla" horiz-adv-x="602" unicode="Ç" d="M211 -224l55 78q37 -26 77 -26q10 0 15 1q15 2 26 10t11 19q-1 21 -21 31t-49 10q-13 0 -33 -4l22 113q-127 29 -196.5 129t-69.5 223q0 94 39 175t123.5 135t200.5 54q78 0 141 -28l-17 -147q-60 31 -124 31q-101 0 -156.5 -64.5t-55.5 -153.5t55.5 -153.5t156.5 -64.5 q76 0 138 32l19 -148q-73 -30 -157 -30h-3l-5 -36q48 -4 78 -34.5t30 -72.5q0 -41 -30 -77q-40 -54 -122 -54q-77 0 -148 52z"/>
<glyph glyph-name="Egrave" horiz-adv-x="504" unicode="È" d="M115 878h176l49 -115h-129zM450 0h-370v715h358v-143h-215v-143h188v-143h-188v-143h227v-143z"/>
<glyph glyph-name="Eacute" horiz-adv-x="504" unicode="É" d="M450 0h-370v715h358v-143h-215v-143h188v-143h-188v-143h227v-143zM237 879h176l-96 -115h-129z"/>
<glyph glyph-name="Ecircumflex" horiz-adv-x="504" unicode="Ê" d="M449 769h-150l-37 45l-35 -45h-149l139 134h91zM450 0h-370v715h358v-143h-215v-143h188v-143h-188v-143h227v-143z"/>
<glyph glyph-name="Edieresis" horiz-adv-x="504" unicode="Ë" d="M450 0h-370v715h358v-143h-215v-143h188v-143h-188v-143h227v-143zM288 833q0 31 23.5 52.5t56.5 21.5q34 0 57 -21.5t23 -52.5t-23 -51t-57 -21q-33 0 -56.5 20.5t-23.5 51.5zM74 833q0 31 23 52.5t56 21.5t56.5 -21.5t23.5 -52.5t-23.5 -51.5t-56.5 -20.5q-33 1 -56 21 t-23 51z"/>
<glyph glyph-name="Igrave" horiz-adv-x="304" unicode="Ì" d="M3 901h170l49 -129h-126zM223 0h-143v715h143v-715z"/>
<glyph glyph-name="Iacute" horiz-adv-x="304" unicode="Í" d="M223 0h-143v715h143v-715zM133 901h170l-93 -129h-126z"/>
<glyph glyph-name="Icircumflex" horiz-adv-x="304" unicode="Î" d="M325 770h-142l-35 48l-33 -48h-142l132 143h86zM223 0h-143v715h143v-715z"/>
<glyph glyph-name="Idieresis" horiz-adv-x="304" unicode="Ï" d="M223 0h-143v715h143v-715zM180 849q0 34 23 57t54 23q33 0 56 -23t23 -57q0 -33 -23 -55.5t-56 -23.5q-31 0 -54 23t-23 56zM-30 849q0 34 22.5 57t54.5 23q33 0 55.5 -23t22.5 -57q0 -33 -22.5 -56t-55.5 -23q-32 1 -54.5 23.5t-22.5 55.5z"/>
<glyph glyph-name="Eth" horiz-adv-x="704" unicode="Ð" d="M293 572h-70v-154h128v-133h-128v-142h70q98 0 153.5 64t55.5 151t-55 150.5t-154 63.5zM3 285v133h77v297h213q86 0 155.5 -30.5t112.5 -81t66 -113.5t23 -132q0 -93 -38.5 -172.5t-121.5 -132.5t-197 -53h-213v285h-77z"/>
<glyph glyph-name="Ntilde" horiz-adv-x="704" unicode="Ñ" d="M262 776l-87 38q32 105 110 105h4q24 -1 59 -19t47 -18q21 0 36 29l86 -39q-14 -48 -42.5 -76t-68.5 -28h-4q-23 1 -58 19t-47 18q-22 0 -35 -29zM223 389v-389h-143v730h38l361 -420v404h144v-729h-38z"/>
<glyph glyph-name="Ograve" horiz-adv-x="847" unicode="Ò" d="M274 925h186l53 -141h-138zM424 138q101 0 157.5 65.5t56.5 155.5t-56.5 155.5t-157.5 65.5t-157.5 -65.5t-56.5 -155.5t56.5 -155.5t157.5 -65.5zM424 -10q-89 0 -161 31.5t-116.5 84t-68 117.5t-23.5 135t23.5 135.5t68 118t116.5 84t161 31.5t161 -31.5t116.5 -84 t68 -118t23.5 -135.5t-23.5 -135t-68 -117.5t-116.5 -84t-161 -31.5z"/>
<glyph glyph-name="Oacute" horiz-adv-x="847" unicode="Ó" d="M414 928h183l-101 -141h-135zM424 138q101 0 157.5 65.5t56.5 155.5t-56.5 155.5t-157.5 65.5t-157.5 -65.5t-56.5 -155.5t56.5 -155.5t157.5 -65.5zM424 -10q-89 0 -161 31.5t-116.5 84t-68 117.5t-23.5 135t23.5 135.5t68 118t116.5 84t161 31.5t161 -31.5t116.5 -84 t68 -118t23.5 -135.5t-23.5 -135t-68 -117.5t-116.5 -84t-161 -31.5z"/>
<glyph glyph-name="Ocircumflex" horiz-adv-x="847" unicode="Ô" d="M625 780h-158l-39 46l-37 -46h-158l147 137h96zM424 138q101 0 157.5 65.5t56.5 155.5t-56.5 155.5t-157.5 65.5t-157.5 -65.5t-56.5 -155.5t56.5 -155.5t157.5 -65.5zM424 -10q-89 0 -161 31.5t-116.5 84t-68 117.5t-23.5 135t23.5 135.5t68 118t116.5 84t161 31.5 t161 -31.5t116.5 -84t68 -118t23.5 -135.5t-23.5 -135t-68 -117.5t-116.5 -84t-161 -31.5z"/>
<glyph glyph-name="Otilde" horiz-adv-x="847" unicode="Õ" d="M344 785l-87 38q32 105 110 105h4q24 -1 59 -19t47 -18q21 0 36 29l86 -39q-14 -48 -42.5 -76t-68.5 -28h-4q-23 1 -58 19t-47 18q-22 0 -35 -29zM424 138q101 0 157.5 65.5t56.5 155.5t-56.5 155.5t-157.5 65.5t-157.5 -65.5t-56.5 -155.5t56.5 -155.5t157.5 -65.5z M424 -10q-89 0 -161 31.5t-116.5 84t-68 117.5t-23.5 135t23.5 135.5t68 118t116.5 84t161 31.5t161 -31.5t116.5 -84t68 -118t23.5 -135.5t-23.5 -135t-68 -117.5t-116.5 -84t-161 -31.5z"/>
<glyph glyph-name="Odieresis" horiz-adv-x="847" unicode="Ö" d="M475 853q0 33 25.5 55.5t59.5 22.5q36 0 60.5 -22t24.5 -56q0 -33 -24.5 -55t-60.5 -23q-34 0 -59.5 22.5t-25.5 55.5zM216 853q0 33 25 55.5t60 22.5q36 0 61 -22.5t25 -55.5t-25 -55.5t-61 -22.5q-35 1 -60 23t-25 55zM424 138q101 0 157.5 65.5t56.5 155.5 t-56.5 155.5t-157.5 65.5t-157.5 -65.5t-56.5 -155.5t56.5 -155.5t157.5 -65.5zM424 -10q-89 0 -161 31.5t-116.5 84t-68 117.5t-23.5 135t23.5 135.5t68 118t116.5 84t161 31.5t161 -31.5t116.5 -84t68 -118t23.5 -135.5t-23.5 -135t-68 -117.5t-116.5 -84t-161 -31.5z"/>
<glyph glyph-name="Oslash" horiz-adv-x="824" unicode="Ø" d="M247 206l211 366q-8 2 -24 2h-27q-99 0 -155 -66t-56 -155q0 -87 51 -147zM568 507l-211 -365q12 -2 21 -2q5 0 14.5 0.5t14.5 0.5q100 0 156 65t56 154q0 87 -51 147zM532 700l48 83h147l-83 -144q61 -51 93 -125.5t32 -156.5q0 -69 -23 -133t-67 -115.5t-114.5 -82 t-157.5 -30.5q-67 0 -124 17l-48 -82h-147l83 144q-61 51 -93 126t-32 157q0 69 23 133t66.5 115.5t114 82t157.5 30.5q71 0 125 -19z"/>
<glyph glyph-name="Ugrave" d="M195 909h167l48 -139h-124zM593 249q0 -120 -77 -187.5t-182 -67.5t-181.5 67.5t-76.5 187.5v466h143v-465q0 -53 34.5 -82.5t81.5 -29.5t81.5 29.5t34.5 82.5v465h142v-466z" unicode="Ù"/>
<glyph glyph-name="Uacute" d="M593 249q0 -120 -77 -187.5t-182 -67.5t-181.5 67.5t-76.5 187.5v466h143v-465q0 -53 34.5 -82.5t81.5 -29.5t81.5 29.5t34.5 82.5v465h142v-466zM313 909h167l-91 -139h-124z" unicode="Ú"/>
<glyph glyph-name="Ucircumflex" d="M522 781h-152l-37 47l-36 -47h-151l141 140h92zM593 249q0 -120 -77 -187.5t-182 -67.5t-181.5 67.5t-76.5 187.5v466h143v-465q0 -53 34.5 -82.5t81.5 -29.5t81.5 29.5t34.5 82.5v465h142v-466z" unicode="Û"/>
<glyph glyph-name="Udieresis" d="M377 842q0 32 23 54t54 22q33 0 55 -21.5t22 -54.5q0 -31 -22 -52t-55 -22q-31 0 -54 21.5t-23 52.5zM143 842q0 33 22.5 54.5t54.5 21.5q33 0 55 -21.5t22 -54.5q0 -31 -22.5 -52.5t-54.5 -21.5q-32 1 -54.5 22t-22.5 52zM593 249q0 -120 -77 -187.5t-182 -67.5 t-181.5 67.5t-76.5 187.5v466h143v-465q0 -53 34.5 -82.5t81.5 -29.5t81.5 29.5t34.5 82.5v465h142v-466z" unicode="Ü"/>
<glyph glyph-name="Yacute" horiz-adv-x="649" unicode="Ý" d="M299 913h183l-101 -141h-135zM255 0v322l-249 393h174l146 -246l146 246h175l-250 -393v-322h-142z"/>
<glyph glyph-name="Thorn" horiz-adv-x="603" unicode="Þ" d="M223 288h126q34 0 53 24t19 56t-19 56t-53 24h-126v-160zM223 0h-143v715h143v-125h138q98 0 153 -65.5t55 -154.5q0 -90 -55 -155.5t-153 -65.5h-138v-149z"/>
<glyph glyph-name="agrave" horiz-adv-x="653" unicode="à" d="M161 906h186l53 -141h-138zM258 211h132l-65 191zM304 724h41l288 -724h-161l-29 77h-237l-28 -77h-162z"/>
<glyph glyph-name="aacute" horiz-adv-x="653" unicode="á" d="M296 906h186l-101 -141h-138zM258 211h132l-65 191zM304 724h41l288 -724h-161l-29 77h-237l-28 -77h-162z"/>
<glyph glyph-name="acircumflex" horiz-adv-x="653" unicode="â" d="M511 759h-152l-37 47l-36 -47h-151l141 140h92zM258 211h132l-65 191zM304 724h41l288 -724h-161l-29 77h-237l-28 -77h-162z"/>
<glyph glyph-name="atilde" horiz-adv-x="653" unicode="ã" d="M240 768l-87 38q32 105 110 105h4q24 -1 59 -19t47 -18q21 0 36 29l86 -39q-14 -48 -42.5 -76t-68.5 -28h-4q-23 1 -58 19t-47 18q-22 0 -35 -29zM258 211h132l-65 191zM304 724h41l288 -724h-161l-29 77h-237l-28 -77h-162z"/>
<glyph glyph-name="adieresis" horiz-adv-x="653" unicode="ä" d="M367 826q0 35 24 58.5t57 23.5q35 0 58.5 -23.5t23.5 -58.5q0 -34 -23.5 -57t-58.5 -24q-33 0 -57 23.5t-24 57.5zM120 826q0 35 24 58.5t57 23.5q35 0 58.5 -23.5t23.5 -58.5q0 -34 -23.5 -57.5t-58.5 -23.5q-34 1 -57.5 24t-23.5 57zM258 211h132l-65 191zM304 724h41 l288 -724h-161l-29 77h-237l-28 -77h-162z"/>
<glyph glyph-name="aring" horiz-adv-x="653" unicode="å" d="M325 764q-25 0 -39 -15.5t-14 -36.5t14 -36.5t39 -15.5t39 16t14 37t-14 36t-39 15zM258 211h132l-65 186zM324 851q67 0 103.5 -40.5t36.5 -96.5q0 -38 -18.5 -71.5t-52.5 -51.5l240 -591h-161l-29 77h-237l-28 -77h-162l240 590q-35 17 -53 50.5t-18 72.5q0 56 36.5 97 t102.5 41z"/>
<glyph glyph-name="ae" horiz-adv-x="795" unicode="æ" d="M296 243h108v257zM18 0l348 715h365v-140h-184v-144h156v-146h-156v-142h194v-143h-337v110h-165l-46 -110h-175z"/>
<glyph glyph-name="ccedilla" horiz-adv-x="602" unicode="ç" d="M211 -224l55 78q37 -26 77 -26q10 0 15 1q15 2 26 10t11 19q-1 21 -21 31t-49 10q-13 0 -33 -4l22 113q-127 29 -196.5 129t-69.5 223q0 94 39 175t123.5 135t200.5 54q78 0 141 -28l-17 -147q-60 31 -124 31q-101 0 -156.5 -64.5t-55.5 -153.5t55.5 -153.5t156.5 -64.5 q76 0 138 32l19 -148q-73 -30 -157 -30h-3l-5 -36q48 -4 78 -34.5t30 -72.5q0 -41 -30 -77q-40 -54 -122 -54q-77 0 -148 52z"/>
<glyph glyph-name="egrave" horiz-adv-x="504" unicode="è" d="M115 878h176l49 -115h-129zM450 0h-370v715h358v-143h-215v-143h188v-143h-188v-143h227v-143z"/>
<glyph glyph-name="eacute" horiz-adv-x="504" unicode="é" d="M450 0h-370v715h358v-143h-215v-143h188v-143h-188v-143h227v-143zM237 879h176l-96 -115h-129z"/>
<glyph glyph-name="ecircumflex" horiz-adv-x="504" unicode="ê" d="M449 769h-150l-37 45l-35 -45h-149l139 134h91zM450 0h-370v715h358v-143h-215v-143h188v-143h-188v-143h227v-143z"/>
<glyph glyph-name="edieresis" horiz-adv-x="504" unicode="ë" d="M450 0h-370v715h358v-143h-215v-143h188v-143h-188v-143h227v-143zM288 833q0 31 23.5 52.5t56.5 21.5q34 0 57 -21.5t23 -52.5t-23 -51t-57 -21q-33 0 -56.5 20.5t-23.5 51.5zM74 833q0 31 23 52.5t56 21.5t56.5 -21.5t23.5 -52.5t-23.5 -51.5t-56.5 -20.5q-33 1 -56 21 t-23 51z"/>
<glyph glyph-name="igrave" horiz-adv-x="304" unicode="ì" d="M3 901h170l49 -129h-126zM223 0h-143v715h143v-715z"/>
<glyph glyph-name="iacute" horiz-adv-x="304" unicode="í" d="M223 0h-143v715h143v-715zM133 901h170l-93 -129h-126z"/>
<glyph glyph-name="icircumflex" horiz-adv-x="304" unicode="î" d="M325 770h-142l-35 48l-33 -48h-142l132 143h86zM223 0h-143v715h143v-715z"/>
<glyph glyph-name="idieresis" horiz-adv-x="304" unicode="ï" d="M223 0h-143v715h143v-715zM180 849q0 34 23 57t54 23q33 0 56 -23t23 -57q0 -33 -23 -55.5t-56 -23.5q-31 0 -54 23t-23 56zM-30 849q0 34 22.5 57t54.5 23q33 0 55.5 -23t22.5 -57q0 -33 -22.5 -56t-55.5 -23q-32 1 -54.5 23.5t-22.5 55.5z"/>
<glyph glyph-name="eth" horiz-adv-x="704" unicode="ð" d="M293 572h-70v-154h128v-133h-128v-142h70q98 0 153.5 64t55.5 151t-55 150.5t-154 63.5zM3 285v133h77v297h213q86 0 155.5 -30.5t112.5 -81t66 -113.5t23 -132q0 -93 -38.5 -172.5t-121.5 -132.5t-197 -53h-213v285h-77z"/>
<glyph glyph-name="ntilde" horiz-adv-x="704" unicode="ñ" d="M262 776l-87 38q32 105 110 105h4q24 -1 59 -19t47 -18q21 0 36 29l86 -39q-14 -48 -42.5 -76t-68.5 -28h-4q-23 1 -58 19t-47 18q-22 0 -35 -29zM223 389v-389h-143v730h38l361 -420v404h144v-729h-38z"/>
<glyph glyph-name="ograve" horiz-adv-x="847" unicode="ò" d="M274 925h186l53 -141h-138zM424 138q101 0 157.5 65.5t56.5 155.5t-56.5 155.5t-157.5 65.5t-157.5 -65.5t-56.5 -155.5t56.5 -155.5t157.5 -65.5zM424 -10q-89 0 -161 31.5t-116.5 84t-68 117.5t-23.5 135t23.5 135.5t68 118t116.5 84t161 31.5t161 -31.5t116.5 -84 t68 -118t23.5 -135.5t-23.5 -135t-68 -117.5t-116.5 -84t-161 -31.5z"/>
<glyph glyph-name="oacute" horiz-adv-x="847" unicode="ó" d="M414 928h183l-101 -141h-135zM424 138q101 0 157.5 65.5t56.5 155.5t-56.5 155.5t-157.5 65.5t-157.5 -65.5t-56.5 -155.5t56.5 -155.5t157.5 -65.5zM424 -10q-89 0 -161 31.5t-116.5 84t-68 117.5t-23.5 135t23.5 135.5t68 118t116.5 84t161 31.5t161 -31.5t116.5 -84 t68 -118t23.5 -135.5t-23.5 -135t-68 -117.5t-116.5 -84t-161 -31.5z"/>
<glyph glyph-name="ocircumflex" horiz-adv-x="847" unicode="ô" d="M625 780h-158l-39 46l-37 -46h-158l147 137h96zM424 138q101 0 157.5 65.5t56.5 155.5t-56.5 155.5t-157.5 65.5t-157.5 -65.5t-56.5 -155.5t56.5 -155.5t157.5 -65.5zM424 -10q-89 0 -161 31.5t-116.5 84t-68 117.5t-23.5 135t23.5 135.5t68 118t116.5 84t161 31.5 t161 -31.5t116.5 -84t68 -118t23.5 -135.5t-23.5 -135t-68 -117.5t-116.5 -84t-161 -31.5z"/>
<glyph glyph-name="otilde" horiz-adv-x="847" unicode="õ" d="M344 785l-87 38q32 105 110 105h4q24 -1 59 -19t47 -18q21 0 36 29l86 -39q-14 -48 -42.5 -76t-68.5 -28h-4q-23 1 -58 19t-47 18q-22 0 -35 -29zM424 138q101 0 157.5 65.5t56.5 155.5t-56.5 155.5t-157.5 65.5t-157.5 -65.5t-56.5 -155.5t56.5 -155.5t157.5 -65.5z M424 -10q-89 0 -161 31.5t-116.5 84t-68 117.5t-23.5 135t23.5 135.5t68 118t116.5 84t161 31.5t161 -31.5t116.5 -84t68 -118t23.5 -135.5t-23.5 -135t-68 -117.5t-116.5 -84t-161 -31.5z"/>
<glyph glyph-name="odieresis" horiz-adv-x="847" unicode="ö" d="M475 853q0 33 25.5 55.5t59.5 22.5q36 0 60.5 -22t24.5 -56q0 -33 -24.5 -55t-60.5 -23q-34 0 -59.5 22.5t-25.5 55.5zM216 853q0 33 25 55.5t60 22.5q36 0 61 -22.5t25 -55.5t-25 -55.5t-61 -22.5q-35 1 -60 23t-25 55zM424 138q101 0 157.5 65.5t56.5 155.5 t-56.5 155.5t-157.5 65.5t-157.5 -65.5t-56.5 -155.5t56.5 -155.5t157.5 -65.5zM424 -10q-89 0 -161 31.5t-116.5 84t-68 117.5t-23.5 135t23.5 135.5t68 118t116.5 84t161 31.5t161 -31.5t116.5 -84t68 -118t23.5 -135.5t-23.5 -135t-68 -117.5t-116.5 -84t-161 -31.5z"/>
<glyph glyph-name="oslash" horiz-adv-x="824" unicode="ø" d="M247 206l211 366q-8 2 -24 2h-27q-99 0 -155 -66t-56 -155q0 -87 51 -147zM568 507l-211 -365q12 -2 21 -2q5 0 14.5 0.5t14.5 0.5q100 0 156 65t56 154q0 87 -51 147zM532 700l48 83h147l-83 -144q61 -51 93 -125.5t32 -156.5q0 -69 -23 -133t-67 -115.5t-114.5 -82 t-157.5 -30.5q-67 0 -124 17l-48 -82h-147l83 144q-61 51 -93 126t-32 157q0 69 23 133t66.5 115.5t114 82t157.5 30.5q71 0 125 -19z"/>
<glyph glyph-name="ugrave" d="M195 909h167l48 -139h-124zM593 249q0 -120 -77 -187.5t-182 -67.5t-181.5 67.5t-76.5 187.5v466h143v-465q0 -53 34.5 -82.5t81.5 -29.5t81.5 29.5t34.5 82.5v465h142v-466z" unicode="ù"/>
<glyph glyph-name="uacute" d="M593 249q0 -120 -77 -187.5t-182 -67.5t-181.5 67.5t-76.5 187.5v466h143v-465q0 -53 34.5 -82.5t81.5 -29.5t81.5 29.5t34.5 82.5v465h142v-466zM313 909h167l-91 -139h-124z" unicode="ú"/>
<glyph glyph-name="ucircumflex" d="M522 781h-152l-37 47l-36 -47h-151l141 140h92zM593 249q0 -120 -77 -187.5t-182 -67.5t-181.5 67.5t-76.5 187.5v466h143v-465q0 -53 34.5 -82.5t81.5 -29.5t81.5 29.5t34.5 82.5v465h142v-466z" unicode="û"/>
<glyph glyph-name="udieresis" d="M377 842q0 32 23 54t54 22q33 0 55 -21.5t22 -54.5q0 -31 -22 -52t-55 -22q-31 0 -54 21.5t-23 52.5zM143 842q0 33 22.5 54.5t54.5 21.5q33 0 55 -21.5t22 -54.5q0 -31 -22.5 -52.5t-54.5 -21.5q-32 1 -54.5 22t-22.5 52zM593 249q0 -120 -77 -187.5t-182 -67.5 t-181.5 67.5t-76.5 187.5v466h143v-465q0 -53 34.5 -82.5t81.5 -29.5t81.5 29.5t34.5 82.5v465h142v-466z" unicode="ü"/>
<glyph glyph-name="yacute" horiz-adv-x="649" unicode="ý" d="M299 913h183l-101 -141h-135zM255 0v322l-249 393h174l146 -246l146 246h175l-250 -393v-322h-142z"/>
<glyph glyph-name="thorn" horiz-adv-x="603" unicode="þ" d="M223 288h126q34 0 53 24t19 56t-19 56t-53 24h-126v-160zM223 0h-143v715h143v-125h138q98 0 153 -65.5t55 -154.5q0 -90 -55 -155.5t-153 -65.5h-138v-149z"/>
<glyph glyph-name="ydieresis" horiz-adv-x="649" unicode="ÿ" d="M366 843q0 35 24 58.5t57 23.5q35 0 58.5 -23.5t23.5 -58.5q0 -34 -23.5 -57t-58.5 -24q-33 0 -57 23.5t-24 57.5zM119 843q0 35 24 58.5t57 23.5q35 0 58.5 -23.5t23.5 -58.5q0 -34 -23.5 -57.5t-58.5 -23.5q-34 1 -57.5 24t-23.5 57zM255 0v322l-249 393h174l146 -246 l146 246h175l-250 -393v-322h-142z"/>
<glyph glyph-name="Amacron" horiz-adv-x="653" unicode="Ā" d="M192 768v131h264v-131h-264zM258 211h132l-65 197zM303 729h43l287 -729h-161l-29 77h-237l-28 -77h-162z"/>
<glyph glyph-name="amacron" horiz-adv-x="653" unicode="ā" d="M192 768v131h264v-131h-264zM258 211h132l-65 197zM303 729h43l287 -729h-161l-29 77h-237l-28 -77h-162z"/>
<glyph glyph-name="Abreve" horiz-adv-x="653" unicode="Ă" d="M325 867q46 0 46 42h94q0 -3 0.5 -8t0.5 -7q0 -38 -14.5 -64.5t-38 -39.5t-45 -18t-43.5 -5q-21 0 -42.5 5t-45 17.5t-38.5 39.5t-15 65q0 2 0.5 7t0.5 8h94q0 -42 46 -42zM258 211h132l-65 197zM303 729h43l287 -729h-161l-29 77h-237l-28 -77h-162z"/>
<glyph glyph-name="abreve" horiz-adv-x="653" unicode="ă" d="M325 867q46 0 46 42h94q0 -3 0.5 -8t0.5 -7q0 -38 -14.5 -64.5t-38 -39.5t-45 -18t-43.5 -5q-21 0 -42.5 5t-45 17.5t-38.5 39.5t-15 65q0 2 0.5 7t0.5 8h94q0 -42 46 -42zM258 211h132l-65 197zM303 729h43l287 -729h-161l-29 77h-237l-28 -77h-162z"/>
<glyph glyph-name="Aogonek" horiz-adv-x="653" unicode="Ą" d="M258 211h132l-65 186zM16 0l301 741h15l301 -741q-32 -26 -56 -60t-24 -61q0 -10 5 -20q7 -13 27 -13q21 0 43 11l9 -97q-43 -16 -87 -16q-80 0 -109 55q-13 25 -13 53q0 76 76 148h-32l-29 77h-237l-28 -77h-162z"/>
<glyph glyph-name="aogonek" horiz-adv-x="653" unicode="ą" d="M258 211h132l-65 186zM16 0l301 741h15l301 -741q-32 -26 -56 -60t-24 -61q0 -10 5 -20q7 -13 27 -13q21 0 43 11l9 -97q-43 -16 -87 -16q-80 0 -109 55q-13 25 -13 53q0 76 76 148h-32l-29 77h-237l-28 -77h-162z"/>
<glyph glyph-name="Cacute" horiz-adv-x="602" unicode="Ć" d="M348 916h170l-94 -142h-125zM535 549q-60 31 -124 31q-101 0 -156.5 -64.5t-55.5 -153.5t55.5 -153.5t156.5 -64.5q76 0 138 32l19 -148q-73 -30 -157 -30q-116 0 -200.5 54t-123.5 134.5t-39 174.5q0 70 23 134t67 115.5t114.5 82.5t158.5 31q78 0 141 -28z"/>
<glyph glyph-name="cacute" horiz-adv-x="602" unicode="ć" d="M348 916h170l-94 -142h-125zM535 549q-60 31 -124 31q-101 0 -156.5 -64.5t-55.5 -153.5t55.5 -153.5t156.5 -64.5q76 0 138 32l19 -148q-73 -30 -157 -30q-116 0 -200.5 54t-123.5 134.5t-39 174.5q0 70 23 134t67 115.5t114.5 82.5t158.5 31q78 0 141 -28z"/>
<glyph glyph-name="Ccircumflex" horiz-adv-x="602" unicode="Ĉ" d="M555 771h-152l-37 47l-36 -47h-151l141 140h92zM535 549q-60 31 -124 31q-101 0 -156.5 -64.5t-55.5 -153.5t55.5 -153.5t156.5 -64.5q76 0 138 32l19 -148q-73 -30 -157 -30q-116 0 -200.5 54t-123.5 134.5t-39 174.5q0 70 23 134t67 115.5t114.5 82.5t158.5 31 q78 0 141 -28z"/>
<glyph glyph-name="ccircumflex" horiz-adv-x="602" unicode="ĉ" d="M555 771h-152l-37 47l-36 -47h-151l141 140h92zM535 549q-60 31 -124 31q-101 0 -156.5 -64.5t-55.5 -153.5t55.5 -153.5t156.5 -64.5q76 0 138 32l19 -148q-73 -30 -157 -30q-116 0 -200.5 54t-123.5 134.5t-39 174.5q0 70 23 134t67 115.5t114.5 82.5t158.5 31 q78 0 141 -28z"/>
<glyph glyph-name="Cdotaccent" horiz-adv-x="602" unicode="Ċ" d="M390 929q39 0 60.5 -22.5t21.5 -52.5q0 -31 -22 -53.5t-60 -22.5q-39 0 -60.5 22.5t-21.5 53.5t21.5 53t60.5 22zM535 549q-60 31 -124 31q-101 0 -156.5 -64.5t-55.5 -153.5t55.5 -153.5t156.5 -64.5q76 0 138 32l19 -148q-73 -30 -157 -30q-116 0 -200.5 54 t-123.5 134.5t-39 174.5q0 70 23 134t67 115.5t114.5 82.5t158.5 31q78 0 141 -28z"/>
<glyph glyph-name="cdotaccent" horiz-adv-x="602" unicode="ċ" d="M390 929q39 0 60.5 -22.5t21.5 -52.5q0 -31 -22 -53.5t-60 -22.5q-39 0 -60.5 22.5t-21.5 53.5t21.5 53t60.5 22zM535 549q-60 31 -124 31q-101 0 -156.5 -64.5t-55.5 -153.5t55.5 -153.5t156.5 -64.5q76 0 138 32l19 -148q-73 -30 -157 -30q-116 0 -200.5 54 t-123.5 134.5t-39 174.5q0 70 23 134t67 115.5t114.5 82.5t158.5 31q78 0 141 -28z"/>
<glyph glyph-name="Ccaron" horiz-adv-x="602" unicode="Č" d="M415 912h152l-143 -140h-92l-141 140h151l36 -47zM535 549q-60 31 -124 31q-101 0 -156.5 -64.5t-55.5 -153.5t55.5 -153.5t156.5 -64.5q76 0 138 32l19 -148q-73 -30 -157 -30q-116 0 -200.5 54t-123.5 134.5t-39 174.5q0 70 23 134t67 115.5t114.5 82.5t158.5 31 q78 0 141 -28z"/>
<glyph glyph-name="ccaron" horiz-adv-x="602" unicode="č" d="M415 912h152l-143 -140h-92l-141 140h151l36 -47zM535 549q-60 31 -124 31q-101 0 -156.5 -64.5t-55.5 -153.5t55.5 -153.5t156.5 -64.5q76 0 138 32l19 -148q-73 -30 -157 -30q-116 0 -200.5 54t-123.5 134.5t-39 174.5q0 70 23 134t67 115.5t114.5 82.5t158.5 31 q78 0 141 -28z"/>
<glyph glyph-name="Dcaron" horiz-adv-x="704" unicode="Ď" d="M337 908h152l-143 -140h-92l-141 140h151l36 -47zM293 572h-70v-429h70q98 0 153.5 64t55.5 151t-55 150.5t-154 63.5zM293 715q86 0 155.5 -30.5t112.5 -81t66 -113.5t23 -132q0 -93 -38.5 -172.5t-121.5 -132.5t-197 -53h-213v715h213z"/>
<glyph glyph-name="dcaron" horiz-adv-x="704" unicode="ď" d="M337 908h152l-143 -140h-92l-141 140h151l36 -47zM293 572h-70v-429h70q98 0 153.5 64t55.5 151t-55 150.5t-154 63.5zM293 715q86 0 155.5 -30.5t112.5 -81t66 -113.5t23 -132q0 -93 -38.5 -172.5t-121.5 -132.5t-197 -53h-213v715h213z"/>
<glyph glyph-name="Dcroat" horiz-adv-x="704" unicode="Đ" d="M293 572h-70v-154h128v-133h-128v-142h70q98 0 153.5 64t55.5 151t-55 150.5t-154 63.5zM3 285v133h77v297h213q86 0 155.5 -30.5t112.5 -81t66 -113.5t23 -132q0 -93 -38.5 -172.5t-121.5 -132.5t-197 -53h-213v285h-77z"/>
<glyph glyph-name="dcroat" horiz-adv-x="704" unicode="đ" d="M293 572h-70v-154h128v-133h-128v-142h70q98 0 153.5 64t55.5 151t-55 150.5t-154 63.5zM3 285v133h77v297h213q86 0 155.5 -30.5t112.5 -81t66 -113.5t23 -132q0 -93 -38.5 -172.5t-121.5 -132.5t-197 -53h-213v285h-77z"/>
<glyph glyph-name="Emacron" horiz-adv-x="504" unicode="Ē" d="M135 775v121h262v-121h-262zM450 0h-370v715h358v-143h-215v-143h188v-143h-188v-143h227v-143z"/>
<glyph glyph-name="emacron" horiz-adv-x="504" unicode="ē" d="M135 775v121h262v-121h-262zM450 0h-370v715h358v-143h-215v-143h188v-143h-188v-143h227v-143z"/>
<glyph glyph-name="Ebreve" horiz-adv-x="504" unicode="Ĕ" d="M264 864q46 0 46 42h94q0 -2 0.5 -7t0.5 -8q0 -38 -14.5 -64.5t-38 -39.5t-45 -18t-43.5 -5q-21 0 -42.5 5t-45 17.5t-38.5 39.5t-15 65q0 3 0.5 8t0.5 7h94q0 -42 46 -42zM450 0h-370v715h358v-143h-215v-143h188v-143h-188v-143h227v-143z"/>
<glyph glyph-name="ebreve" horiz-adv-x="504" unicode="ĕ" d="M264 864q46 0 46 42h94q0 -2 0.5 -7t0.5 -8q0 -38 -14.5 -64.5t-38 -39.5t-45 -18t-43.5 -5q-21 0 -42.5 5t-45 17.5t-38.5 39.5t-15 65q0 3 0.5 8t0.5 7h94q0 -42 46 -42zM450 0h-370v715h358v-143h-215v-143h188v-143h-188v-143h227v-143z"/>
<glyph glyph-name="Edotaccent" horiz-adv-x="504" unicode="Ė" d="M263 912q39 0 60 -21.5t21 -50.5q0 -30 -21.5 -52t-59.5 -22t-60 22t-22 51t22 51t60 22zM450 0h-370v715h358v-143h-215v-143h188v-143h-188v-143h227v-143z"/>
<glyph glyph-name="edotaccent" horiz-adv-x="504" unicode="ė" d="M263 912q39 0 60 -21.5t21 -50.5q0 -30 -21.5 -52t-59.5 -22t-60 22t-22 51t22 51t60 22zM450 0h-370v715h358v-143h-215v-143h188v-143h-188v-143h227v-143z"/>
<glyph glyph-name="Eogonek" horiz-adv-x="504" unicode="Ę" d="M450 143v-143q-35 -20 -55 -50.5t-20 -57.5q0 -11 5 -23q7 -12 27 -12q22 0 42 10l9 -94q-45 -15 -86 -15q-78 0 -107 53q-11 19 -11 44q0 36 22.5 75.5t54.5 69.5h-251v715h358v-143h-215v-143h188v-143h-188v-143h227z"/>
<glyph glyph-name="eogonek" horiz-adv-x="504" unicode="ę" d="M450 143v-143q-35 -20 -55 -50.5t-20 -57.5q0 -11 5 -23q7 -12 27 -12q22 0 42 10l9 -94q-45 -15 -86 -15q-78 0 -107 53q-11 19 -11 44q0 36 22.5 75.5t54.5 69.5h-251v715h358v-143h-215v-143h188v-143h-188v-143h227z"/>
<glyph glyph-name="Ecaron" horiz-adv-x="504" unicode="Ě" d="M306 890h148l-139 -128h-90l-138 128h148l35 -43zM450 0h-370v715h358v-143h-215v-143h188v-143h-188v-143h227v-143z"/>
<glyph glyph-name="ecaron" horiz-adv-x="504" unicode="ě" d="M306 890h148l-139 -128h-90l-138 128h148l35 -43zM450 0h-370v715h358v-143h-215v-143h188v-143h-188v-143h227v-143z"/>
<glyph glyph-name="Gcircumflex" horiz-adv-x="673" unicode="Ĝ" d="M568 772h-152l-37 47l-36 -47h-151l141 140h92zM596 44q-85 -48 -185 -48q-86 0 -157 31t-115 82.5t-67.5 115.5t-23.5 133q0 92 38.5 171t123 133.5t201.5 58.5h14q75 0 153 -26l-17 -145q-61 26 -137 26h-13q-101 -4 -156.5 -68t-55.5 -151q0 -88 56.5 -153t155.5 -65 q14 0 40 4v215h145v-314z"/>
<glyph glyph-name="gcircumflex" horiz-adv-x="673" unicode="ĝ" d="M568 772h-152l-37 47l-36 -47h-151l141 140h92zM596 44q-85 -48 -185 -48q-86 0 -157 31t-115 82.5t-67.5 115.5t-23.5 133q0 92 38.5 171t123 133.5t201.5 58.5h14q75 0 153 -26l-17 -145q-61 26 -137 26h-13q-101 -4 -156.5 -68t-55.5 -151q0 -88 56.5 -153t155.5 -65 q14 0 40 4v215h145v-314z"/>
<glyph glyph-name="Gbreve" horiz-adv-x="673" unicode="Ğ" d="M378 865q46 0 46 42h94q0 -2 0.5 -7t0.5 -8q0 -38 -14.5 -64.5t-38 -39.5t-45 -18t-43.5 -5q-21 0 -42.5 5t-45 17.5t-38.5 39.5t-15 65q0 3 0.5 8t0.5 7h94q0 -42 46 -42zM596 44q-85 -48 -185 -48q-86 0 -157 31t-115 82.5t-67.5 115.5t-23.5 133q0 92 38.5 171 t123 133.5t201.5 58.5h14q75 0 153 -26l-17 -145q-61 26 -137 26h-13q-101 -4 -156.5 -68t-55.5 -151q0 -88 56.5 -153t155.5 -65q14 0 40 4v215h145v-314z"/>
<glyph glyph-name="gbreve" horiz-adv-x="673" unicode="ğ" d="M378 865q46 0 46 42h94q0 -2 0.5 -7t0.5 -8q0 -38 -14.5 -64.5t-38 -39.5t-45 -18t-43.5 -5q-21 0 -42.5 5t-45 17.5t-38.5 39.5t-15 65q0 3 0.5 8t0.5 7h94q0 -42 46 -42zM596 44q-85 -48 -185 -48q-86 0 -157 31t-115 82.5t-67.5 115.5t-23.5 133q0 92 38.5 171 t123 133.5t201.5 58.5h14q75 0 153 -26l-17 -145q-61 26 -137 26h-13q-101 -4 -156.5 -68t-55.5 -151q0 -88 56.5 -153t155.5 -65q14 0 40 4v215h145v-314z"/>
<glyph glyph-name="Gdotaccent" horiz-adv-x="673" unicode="Ġ" d="M391 919q40 0 61.5 -21.5t21.5 -51.5t-22 -52.5t-61 -22.5q-40 0 -61.5 22t-21.5 52t21.5 52t61.5 22zM596 44q-85 -48 -185 -48q-86 0 -157 31t-115 82.5t-67.5 115.5t-23.5 133q0 92 38.5 171t123 133.5t201.5 58.5h14q75 0 153 -26l-17 -145q-61 26 -137 26h-13 q-101 -4 -156.5 -68t-55.5 -151q0 -88 56.5 -153t155.5 -65q14 0 40 4v215h145v-314z"/>
<glyph glyph-name="gdotaccent" horiz-adv-x="673" unicode="ġ" d="M391 919q40 0 61.5 -21.5t21.5 -51.5t-22 -52.5t-61 -22.5q-40 0 -61.5 22t-21.5 52t21.5 52t61.5 22zM596 44q-85 -48 -185 -48q-86 0 -157 31t-115 82.5t-67.5 115.5t-23.5 133q0 92 38.5 171t123 133.5t201.5 58.5h14q75 0 153 -26l-17 -145q-61 26 -137 26h-13 q-101 -4 -156.5 -68t-55.5 -151q0 -88 56.5 -153t155.5 -65q14 0 40 4v215h145v-314z"/>
<glyph glyph-name="uni0122" horiz-adv-x="673" unicode="Ģ" d="M596 44q-85 -48 -185 -48q-86 0 -157 31t-115 82.5t-67.5 115.5t-23.5 133q0 92 38.5 171t123 133.5t201.5 58.5h14q75 0 153 -26l-17 -145q-61 26 -137 26h-13q-101 -4 -156.5 -68t-55.5 -151q0 -88 56.5 -153t155.5 -65q14 0 40 4v215h145v-314zM400 -260h-116l38 204 h148z"/>
<glyph glyph-name="uni0123" horiz-adv-x="673" unicode="ģ" d="M596 44q-85 -48 -185 -48q-86 0 -157 31t-115 82.5t-67.5 115.5t-23.5 133q0 92 38.5 171t123 133.5t201.5 58.5h14q75 0 153 -26l-17 -145q-61 26 -137 26h-13q-101 -4 -156.5 -68t-55.5 -151q0 -88 56.5 -153t155.5 -65q14 0 40 4v215h145v-314zM400 -260h-116l38 204 h148z"/>
<glyph glyph-name="Hcircumflex" horiz-adv-x="661" unicode="Ĥ" d="M517 772h-152l-37 47l-36 -47h-151l141 140h92zM580 0h-143v286h-214v-286h-143v715h143v-286h214v286h143v-715z"/>
<glyph glyph-name="hcircumflex" horiz-adv-x="661" unicode="ĥ" d="M517 772h-152l-37 47l-36 -47h-151l141 140h92zM580 0h-143v286h-214v-286h-143v715h143v-286h214v286h143v-715z"/>
<glyph glyph-name="Hbar" horiz-adv-x="661" unicode="Ħ" d="M223 429h214v94h-214v-94zM17 523v106h63v86h143v-86h214v86h143v-86h63v-106h-63v-523h-143v286h-214v-286h-143v523h-63z"/>
<glyph glyph-name="hbar" horiz-adv-x="661" unicode="ħ" d="M223 429h214v94h-214v-94zM17 523v106h63v86h143v-86h214v86h143v-86h63v-106h-63v-523h-143v286h-214v-286h-143v523h-63z"/>
<glyph glyph-name="Itilde" horiz-adv-x="304" unicode="Ĩ" d="M71 777l-80 34q13 43 39.5 67.5t62.5 24.5h2q22 -1 54 -17t43 -16q19 0 33 26l79 -35q-28 -91 -101 -91h-4q-22 1 -53.5 17t-42.5 16q-20 0 -32 -26zM223 0h-143v715h143v-715z"/>
<glyph glyph-name="itilde" horiz-adv-x="304" unicode="ĩ" d="M71 777l-80 34q13 43 39.5 67.5t62.5 24.5h2q22 -1 54 -17t43 -16q19 0 33 26l79 -35q-28 -91 -101 -91h-4q-22 1 -53.5 17t-42.5 16q-20 0 -32 -26zM223 0h-143v715h143v-715z"/>
<glyph glyph-name="Imacron" horiz-adv-x="304" unicode="Ī" d="M25 779v123h258v-123h-258zM223 0h-143v715h143v-715z"/>
<glyph glyph-name="imacron" horiz-adv-x="304" unicode="ī" d="M25 779v123h258v-123h-258zM223 0h-143v715h143v-715z"/>
<glyph glyph-name="Ibreve" horiz-adv-x="304" unicode="Ĭ" d="M153 868q46 0 46 42h94q0 -2 0.5 -7t0.5 -8q0 -38 -14.5 -64.5t-38 -39.5t-45 -18t-43.5 -5q-21 0 -42.5 5t-45 17.5t-38.5 39.5t-15 65q0 3 0.5 8t0.5 7h94q0 -42 46 -42zM223 0h-143v715h143v-715z"/>
<glyph glyph-name="ibreve" horiz-adv-x="304" unicode="ĭ" d="M153 868q46 0 46 42h94q0 -2 0.5 -7t0.5 -8q0 -38 -14.5 -64.5t-38 -39.5t-45 -18t-43.5 -5q-21 0 -42.5 5t-45 17.5t-38.5 39.5t-15 65q0 3 0.5 8t0.5 7h94q0 -42 46 -42zM223 0h-143v715h143v-715z"/>
<glyph glyph-name="Iogonek" horiz-adv-x="304" unicode="Į" d="M223 0q-62 -66 -62 -115q0 -12 4 -20q7 -13 27 -13q21 0 43 11l9 -97q-43 -16 -87 -16q-80 0 -109 55q-13 23 -13 50q0 70 77 145h-32v715h143v-715z"/>
<glyph glyph-name="iogonek" horiz-adv-x="304" unicode="į" d="M223 0q-62 -66 -62 -115q0 -12 4 -20q7 -13 27 -13q21 0 43 11l9 -97q-43 -16 -87 -16q-80 0 -109 55q-13 23 -13 50q0 70 77 145h-32v715h143v-715z"/>
<glyph glyph-name="Idotaccent" horiz-adv-x="304" unicode="İ" d="M154 928q39 0 60 -23t21 -55t-21.5 -55.5t-59.5 -23.5t-59.5 23.5t-21.5 55.5t21.5 55t59.5 23zM223 0h-143v715h143v-715z"/>
<glyph glyph-name="dotlessi" horiz-adv-x="304" unicode="ı" d="M223 0h-143v715h143v-715z"/>
<glyph glyph-name="IJ" horiz-adv-x="769" unicode="Ĳ" d="M336 0v143h137q31 0 51.5 21t20.5 51v500h145v-500q0 -215 -213 -215h-141zM223 0h-143v715h143v-715z"/>
<glyph glyph-name="ij" horiz-adv-x="769" unicode="ĳ" d="M336 0v143h137q31 0 51.5 21t20.5 51v500h145v-500q0 -215 -213 -215h-141zM223 0h-143v715h143v-715z"/>
<glyph glyph-name="Jcircumflex" horiz-adv-x="465" unicode="Ĵ" d="M488 769h-152l-37 47l-36 -47h-151l141 140h92zM32 0v143h137q31 0 51.5 21t20.5 51v500h145v-500q0 -215 -213 -215h-141z"/>
<glyph glyph-name="jcircumflex" horiz-adv-x="465" unicode="ĵ" d="M488 769h-152l-37 47l-36 -47h-151l141 140h92zM32 0v143h137q31 0 51.5 21t20.5 51v500h145v-500q0 -215 -213 -215h-141z"/>
<glyph glyph-name="uni0136" horiz-adv-x="604" unicode="Ķ" d="M80 0v715h143v-285l180 285h167l-232 -353l252 -362h-177l-190 280v-280h-143zM206 -254l38 204h148l-70 -204h-116z"/>
<glyph glyph-name="uni0137" horiz-adv-x="604" unicode="ķ" d="M80 0v715h143v-285l180 285h167l-232 -353l252 -362h-177l-190 280v-280h-143zM206 -254l38 204h148l-70 -204h-116z"/>
<glyph glyph-name="kgreenlandic" horiz-adv-x="604" unicode="ĸ" d="M80 0v715h143v-285l180 285h167l-232 -353l252 -362h-177l-190 280v-280h-143z"/>
<glyph glyph-name="Lacute" horiz-adv-x="493" unicode="Ĺ" d="M136 909h167l-92 -142h-123zM80 715h143v-572h227v-143h-370v715z"/>
<glyph glyph-name="lacute" horiz-adv-x="493" unicode="ĺ" d="M136 909h167l-92 -142h-123zM80 715h143v-572h227v-143h-370v715z"/>
<glyph glyph-name="uni013B" horiz-adv-x="493" unicode="Ļ" d="M80 715h143v-572h227v-143h-370v715zM274 -247h-115l38 190h146z"/>
<glyph glyph-name="uni013C" horiz-adv-x="493" unicode="ļ" d="M80 715h143v-572h227v-143h-370v715zM274 -247h-115l38 190h146z"/>
<glyph glyph-name="Lcaron" horiz-adv-x="493" unicode="Ľ" d="M347 718h138l-73 -204h-105zM80 715h143v-572h227v-143h-370v715z"/>
<glyph glyph-name="lcaron" horiz-adv-x="493" unicode="ľ" d="M347 718h138l-73 -204h-105zM80 715h143v-572h227v-143h-370v715z"/>
<glyph glyph-name="Ldot" horiz-adv-x="493" unicode="Ŀ" d="M379 462q39 0 60 -23.5t21 -56.5t-21.5 -57t-59.5 -24t-59.5 24t-21.5 57q0 32 21.5 56t59.5 24zM80 715h143v-572h227v-143h-370v715z"/>
<glyph glyph-name="ldot" horiz-adv-x="493" unicode="ŀ" d="M379 462q39 0 60 -23.5t21 -56.5t-21.5 -57t-59.5 -24t-59.5 24t-21.5 57q0 32 21.5 56t59.5 24zM80 715h143v-572h227v-143h-370v715z"/>
<glyph glyph-name="Lslash" horiz-adv-x="489" unicode="Ł" d="M85 377v338h142v-289l144 48v-129l-144 -49v-152h226v-144h-368v248l-85 -29v129z"/>
<glyph glyph-name="lslash" horiz-adv-x="489" unicode="ł" d="M85 377v338h142v-289l144 48v-129l-144 -49v-152h226v-144h-368v248l-85 -29v129z"/>
<glyph glyph-name="Nacute" horiz-adv-x="704" unicode="Ń" d="M303 908h183l-101 -141h-135zM223 389v-389h-143v730h38l361 -420v404h144v-729h-38z"/>
<glyph glyph-name="nacute" horiz-adv-x="704" unicode="ń" d="M303 908h183l-101 -141h-135zM223 389v-389h-143v730h38l361 -420v404h144v-729h-38z"/>
<glyph glyph-name="uni0145" horiz-adv-x="704" unicode="Ņ" d="M223 389v-389h-143v730h38l361 -420v404h144v-729h-38zM392 -244h-115l38 190h146z"/>
<glyph glyph-name="uni0146" horiz-adv-x="704" unicode="ņ" d="M223 389v-389h-143v730h38l361 -420v404h144v-729h-38zM392 -244h-115l38 190h146z"/>
<glyph glyph-name="Ncaron" horiz-adv-x="704" unicode="Ň" d="M381 906h152l-143 -140h-92l-141 140h151l36 -47zM223 389v-389h-143v730h38l361 -420v404h144v-729h-38z"/>
<glyph glyph-name="ncaron" horiz-adv-x="704" unicode="ň" d="M381 906h152l-143 -140h-92l-141 140h151l36 -47zM223 389v-389h-143v730h38l361 -420v404h144v-729h-38z"/>
<glyph glyph-name="napostrophe" horiz-adv-x="704" unicode="ŉ" d="M223 389v-389h-143v730h38l361 -420v404h144v-729h-38z"/>
<glyph glyph-name="Eng" horiz-adv-x="704" unicode="Ŋ" d="M488 93l-265 296v-389h-143v730h38l361 -420v404h144v-748q0 -94 -57 -147t-147 -53h-40v137h36q32 0 52.5 17t20.5 46v127z"/>
<glyph glyph-name="eng" horiz-adv-x="704" unicode="ŋ" d="M488 93l-265 296v-389h-143v730h38l361 -420v404h144v-748q0 -94 -57 -147t-147 -53h-40v137h36q32 0 52.5 17t20.5 46v127z"/>
<glyph glyph-name="Omacron" horiz-adv-x="847" unicode="Ō" d="M293 784v133h278v-133h-278zM424 138q101 0 157.5 65.5t56.5 155.5t-56.5 155.5t-157.5 65.5t-157.5 -65.5t-56.5 -155.5t56.5 -155.5t157.5 -65.5zM424 -10q-89 0 -161 31.5t-116.5 84t-68 117.5t-23.5 135t23.5 135.5t68 118t116.5 84t161 31.5t161 -31.5t116.5 -84 t68 -118t23.5 -135.5t-23.5 -135t-68 -117.5t-116.5 -84t-161 -31.5z"/>
<glyph glyph-name="omacron" horiz-adv-x="847" unicode="ō" d="M293 784v133h278v-133h-278zM424 138q101 0 157.5 65.5t56.5 155.5t-56.5 155.5t-157.5 65.5t-157.5 -65.5t-56.5 -155.5t56.5 -155.5t157.5 -65.5zM424 -10q-89 0 -161 31.5t-116.5 84t-68 117.5t-23.5 135t23.5 135.5t68 118t116.5 84t161 31.5t161 -31.5t116.5 -84 t68 -118t23.5 -135.5t-23.5 -135t-68 -117.5t-116.5 -84t-161 -31.5z"/>
<glyph glyph-name="Obreve" horiz-adv-x="847" unicode="Ŏ" d="M427 885q49 0 49 42h101q0 -3 0.5 -8.5t0.5 -7.5q0 -38 -15.5 -65.5t-40.5 -40t-48 -17.5t-47 -5q-23 0 -46 5.5t-48.5 18t-41.5 40t-16 66.5q0 3 0.5 7t0.5 7h101q0 -42 50 -42zM424 138q101 0 157.5 65.5t56.5 155.5t-56.5 155.5t-157.5 65.5t-157.5 -65.5 t-56.5 -155.5t56.5 -155.5t157.5 -65.5zM424 -10q-89 0 -161 31.5t-116.5 84t-68 117.5t-23.5 135t23.5 135.5t68 118t116.5 84t161 31.5t161 -31.5t116.5 -84t68 -118t23.5 -135.5t-23.5 -135t-68 -117.5t-116.5 -84t-161 -31.5z"/>
<glyph glyph-name="obreve" horiz-adv-x="847" unicode="ŏ" d="M427 885q49 0 49 42h101q0 -3 0.5 -8.5t0.5 -7.5q0 -38 -15.5 -65.5t-40.5 -40t-48 -17.5t-47 -5q-23 0 -46 5.5t-48.5 18t-41.5 40t-16 66.5q0 3 0.5 7t0.5 7h101q0 -42 50 -42zM424 138q101 0 157.5 65.5t56.5 155.5t-56.5 155.5t-157.5 65.5t-157.5 -65.5 t-56.5 -155.5t56.5 -155.5t157.5 -65.5zM424 -10q-89 0 -161 31.5t-116.5 84t-68 117.5t-23.5 135t23.5 135.5t68 118t116.5 84t161 31.5t161 -31.5t116.5 -84t68 -118t23.5 -135.5t-23.5 -135t-68 -117.5t-116.5 -84t-161 -31.5z"/>
<glyph glyph-name="Ohungarumlaut" horiz-adv-x="847" unicode="Ő" d="M513 913h169l-93 -138h-125zM294 913h169l-93 -138h-125zM424 138q101 0 157.5 65.5t56.5 155.5t-56.5 155.5t-157.5 65.5t-157.5 -65.5t-56.5 -155.5t56.5 -155.5t157.5 -65.5zM424 -10q-89 0 -161 31.5t-116.5 84t-68 117.5t-23.5 135t23.5 135.5t68 118t116.5 84 t161 31.5t161 -31.5t116.5 -84t68 -118t23.5 -135.5t-23.5 -135t-68 -117.5t-116.5 -84t-161 -31.5z"/>
<glyph glyph-name="ohungarumlaut" horiz-adv-x="847" unicode="ő" d="M513 913h169l-93 -138h-125zM294 913h169l-93 -138h-125zM424 138q101 0 157.5 65.5t56.5 155.5t-56.5 155.5t-157.5 65.5t-157.5 -65.5t-56.5 -155.5t56.5 -155.5t157.5 -65.5zM424 -10q-89 0 -161 31.5t-116.5 84t-68 117.5t-23.5 135t23.5 135.5t68 118t116.5 84 t161 31.5t161 -31.5t116.5 -84t68 -118t23.5 -135.5t-23.5 -135t-68 -117.5t-116.5 -84t-161 -31.5z"/>
<glyph glyph-name="OE" horiz-adv-x="855" unicode="Œ" d="M452 124v468q-14 2 -53 2q-96 0 -152 -72.5t-58 -161.5q0 -91 56 -164.5t154 -73.5q37 0 53 2zM399 -5q-87 0 -158 31t-114.5 82.5t-66.5 115.5t-23 133t23 133t66.5 115.5t114.5 82.5t158 31q25 0 67 -4h322v-143h-202v-142h174v-140h-174v-148h212v-142h-332 q-21 -5 -67 -5z"/>
<glyph glyph-name="oe" horiz-adv-x="855" unicode="œ" d="M452 124v468q-14 2 -53 2q-96 0 -152 -72.5t-58 -161.5q0 -91 56 -164.5t154 -73.5q37 0 53 2zM399 -5q-87 0 -158 31t-114.5 82.5t-66.5 115.5t-23 133t23 133t66.5 115.5t114.5 82.5t158 31q25 0 67 -4h322v-143h-202v-142h174v-140h-174v-148h212v-142h-332 q-21 -5 -67 -5z"/>
<glyph glyph-name="Racute" horiz-adv-x="613" unicode="Ŕ" d="M271 906h161l-89 -142h-119zM223 572v-160h126q34 0 53.5 24t19.5 56t-19.5 56t-53.5 24h-126zM598 0h-162l-144 273h-69v-273h-143v715h282q100 0 155.5 -64.5t55.5 -152.5q0 -70 -37 -127t-104 -76z"/>
<glyph glyph-name="racute" horiz-adv-x="613" unicode="ŕ" d="M271 906h161l-89 -142h-119zM223 572v-160h126q34 0 53.5 24t19.5 56t-19.5 56t-53.5 24h-126zM598 0h-162l-144 273h-69v-273h-143v715h282q100 0 155.5 -64.5t55.5 -152.5q0 -70 -37 -127t-104 -76z"/>
<glyph glyph-name="uni0156" horiz-adv-x="613" unicode="Ŗ" d="M223 572v-160h126q34 0 53.5 24t19.5 56t-19.5 56t-53.5 24h-126zM598 0h-162l-144 273h-69v-273h-143v715h282q100 0 155.5 -64.5t55.5 -152.5q0 -70 -37 -127t-104 -76zM337 -247h-115l38 190h146z"/>
<glyph glyph-name="uni0157" horiz-adv-x="613" unicode="ŗ" d="M223 572v-160h126q34 0 53.5 24t19.5 56t-19.5 56t-53.5 24h-126zM598 0h-162l-144 273h-69v-273h-143v715h282q100 0 155.5 -64.5t55.5 -152.5q0 -70 -37 -127t-104 -76zM337 -247h-115l38 190h146z"/>
<glyph glyph-name="Rcaron" horiz-adv-x="613" unicode="Ř" d="M330 901h152l-143 -140h-92l-141 140h151l36 -47zM223 572v-160h126q34 0 53.5 24t19.5 56t-19.5 56t-53.5 24h-126zM598 0h-162l-144 273h-69v-273h-143v715h282q100 0 155.5 -64.5t55.5 -152.5q0 -70 -37 -127t-104 -76z"/>
<glyph glyph-name="rcaron" horiz-adv-x="613" unicode="ř" d="M330 901h152l-143 -140h-92l-141 140h151l36 -47zM223 572v-160h126q34 0 53.5 24t19.5 56t-19.5 56t-53.5 24h-126zM598 0h-162l-144 273h-69v-273h-143v715h282q100 0 155.5 -64.5t55.5 -152.5q0 -70 -37 -127t-104 -76z"/>
<glyph glyph-name="Sacute" horiz-adv-x="529" unicode="Ś" d="M249 902h159l-88 -129h-117zM47 46l18 150q82 -58 184 -58q4 0 11 0.5t9 0.5q31 2 52.5 21t21.5 45v6q-2 28 -21 44.5t-53 28.5q-99 36 -155.5 86t-56.5 132q0 90 56.5 152t145.5 66q3 0 11 0.5t13 0.5q66 0 154 -31l-18 -138q-75 30 -132 30h-14q-34 -2 -52.5 -22.5 t-18.5 -50.5v-7q3 -27 23.5 -43.5t56.5 -28.5q207 -76 207 -219q0 -91 -58.5 -151.5t-157.5 -65.5q-3 0 -9.5 -0.5t-10.5 -0.5q-104 0 -206 53z"/>
<glyph glyph-name="sacute" horiz-adv-x="529" unicode="ś" d="M249 902h159l-88 -129h-117zM47 46l18 150q82 -58 184 -58q4 0 11 0.5t9 0.5q31 2 52.5 21t21.5 45v6q-2 28 -21 44.5t-53 28.5q-99 36 -155.5 86t-56.5 132q0 90 56.5 152t145.5 66q3 0 11 0.5t13 0.5q66 0 154 -31l-18 -138q-75 30 -132 30h-14q-34 -2 -52.5 -22.5 t-18.5 -50.5v-7q3 -27 23.5 -43.5t56.5 -28.5q207 -76 207 -219q0 -91 -58.5 -151.5t-157.5 -65.5q-3 0 -9.5 -0.5t-10.5 -0.5q-104 0 -206 53z"/>
<glyph glyph-name="Scircumflex" horiz-adv-x="529" unicode="Ŝ" d="M449 769h-143l-35 51l-35 -51h-143l134 153h87zM47 46l18 150q82 -58 184 -58q4 0 11 0.5t9 0.5q31 2 52.5 21t21.5 45v6q-2 28 -21 44.5t-53 28.5q-99 36 -155.5 86t-56.5 132q0 90 56.5 152t145.5 66q3 0 11 0.5t13 0.5q66 0 154 -31l-18 -138q-75 30 -132 30h-14 q-34 -2 -52.5 -22.5t-18.5 -50.5v-7q3 -27 23.5 -43.5t56.5 -28.5q207 -76 207 -219q0 -91 -58.5 -151.5t-157.5 -65.5q-3 0 -9.5 -0.5t-10.5 -0.5q-104 0 -206 53z"/>
<glyph glyph-name="scircumflex" horiz-adv-x="529" unicode="ŝ" d="M449 769h-143l-35 51l-35 -51h-143l134 153h87zM47 46l18 150q82 -58 184 -58q4 0 11 0.5t9 0.5q31 2 52.5 21t21.5 45v6q-2 28 -21 44.5t-53 28.5q-99 36 -155.5 86t-56.5 132q0 90 56.5 152t145.5 66q3 0 11 0.5t13 0.5q66 0 154 -31l-18 -138q-75 30 -132 30h-14 q-34 -2 -52.5 -22.5t-18.5 -50.5v-7q3 -27 23.5 -43.5t56.5 -28.5q207 -76 207 -219q0 -91 -58.5 -151.5t-157.5 -65.5q-3 0 -9.5 -0.5t-10.5 -0.5q-104 0 -206 53z"/>
<glyph glyph-name="Scedilla" horiz-adv-x="529" unicode="Ş" d="M47 46l18 150q82 -58 184 -58q4 0 11 0.5t9 0.5q31 2 52.5 21t21.5 45v6q-2 28 -21 44.5t-53 28.5q-99 36 -155.5 86t-56.5 132q0 90 56.5 152t145.5 66q3 0 11 0.5t13 0.5q66 0 154 -31l-18 -138q-75 30 -132 30h-14q-34 -2 -52.5 -22.5t-18.5 -50.5v-7 q3 -27 23.5 -43.5t56.5 -28.5q207 -76 207 -219q0 -82 -47.5 -139.5t-130.5 -72.5l-5 -37q45 -4 72.5 -32.5t27.5 -67.5q0 -38 -28 -72q-37 -49 -113 -49q-74 0 -139 48l51 72q35 -24 72 -24q10 0 15 1q34 4 34 27q-1 19 -20.5 28.5t-46.5 9.5q-17 0 -30 -3l19 95 q-89 8 -173 51z"/>
<glyph glyph-name="scedilla" horiz-adv-x="529" unicode="ş" d="M47 46l18 150q82 -58 184 -58q4 0 11 0.5t9 0.5q31 2 52.5 21t21.5 45v6q-2 28 -21 44.5t-53 28.5q-99 36 -155.5 86t-56.5 132q0 90 56.5 152t145.5 66q3 0 11 0.5t13 0.5q66 0 154 -31l-18 -138q-75 30 -132 30h-14q-34 -2 -52.5 -22.5t-18.5 -50.5v-7 q3 -27 23.5 -43.5t56.5 -28.5q207 -76 207 -219q0 -82 -47.5 -139.5t-130.5 -72.5l-5 -37q45 -4 72.5 -32.5t27.5 -67.5q0 -38 -28 -72q-37 -49 -113 -49q-74 0 -139 48l51 72q35 -24 72 -24q10 0 15 1q34 4 34 27q-1 19 -20.5 28.5t-46.5 9.5q-17 0 -30 -3l19 95 q-89 8 -173 51z"/>
<glyph glyph-name="Scaron" horiz-adv-x="529" unicode="Š" d="M309 893h153l-144 -126h-93l-142 126h152l37 -42zM47 46l18 150q82 -58 184 -58q4 0 11 0.5t9 0.5q31 2 52.5 21t21.5 45v6q-2 28 -21 44.5t-53 28.5q-99 36 -155.5 86t-56.5 132q0 90 56.5 152t145.5 66q3 0 11 0.5t13 0.5q66 0 154 -31l-18 -138q-75 30 -132 30h-14 q-34 -2 -52.5 -22.5t-18.5 -50.5v-7q3 -27 23.5 -43.5t56.5 -28.5q207 -76 207 -219q0 -91 -58.5 -151.5t-157.5 -65.5q-3 0 -9.5 -0.5t-10.5 -0.5q-104 0 -206 53z"/>
<glyph glyph-name="scaron" horiz-adv-x="529" unicode="š" d="M307 890h153l-144 -126h-93l-142 126h152l37 -42zM47 46l18 150q82 -58 184 -58q4 0 11 0.5t9 0.5q31 2 52.5 21t21.5 45v6q-2 28 -21 44.5t-53 28.5q-99 36 -155.5 86t-56.5 132q0 90 56.5 152t145.5 66q3 0 11 0.5t13 0.5q66 0 154 -31l-18 -138q-75 30 -132 30h-14 q-34 -2 -52.5 -22.5t-18.5 -50.5v-7q3 -27 23.5 -43.5t56.5 -28.5q207 -76 207 -219q0 -91 -58.5 -151.5t-157.5 -65.5q-3 0 -9.5 -0.5t-10.5 -0.5q-104 0 -206 53z"/>
<glyph glyph-name="uni0162" horiz-adv-x="547" unicode="Ţ" d="M341 0h-23l-7 -51q45 -4 72 -34t27 -71t-27 -75q-37 -53 -112 -53q-70 0 -136 51l51 76q35 -25 70 -25q9 0 14 1q14 2 24 9.5t10 19.5q-3 39 -66 39q-15 0 -29 -3l21 116h-32v572h-178v142h499v-142h-178v-572z"/>
<glyph glyph-name="uni0163" horiz-adv-x="547" unicode="ţ" d="M341 0h-23l-7 -51q45 -4 72 -34t27 -71t-27 -75q-37 -53 -112 -53q-70 0 -136 51l51 76q35 -25 70 -25q9 0 14 1q14 2 24 9.5t10 19.5q-3 39 -66 39q-15 0 -29 -3l21 116h-32v572h-178v142h499v-142h-178v-572z"/>
<glyph glyph-name="Tcaron" horiz-adv-x="547" unicode="Ť" d="M309 904h152l-143 -140h-92l-141 140h151l36 -47zM341 0h-143v572h-178v142h499v-142h-178v-572z"/>
<glyph glyph-name="tcaron" horiz-adv-x="547" unicode="ť" d="M309 904h152l-143 -140h-92l-141 140h151l36 -47zM341 0h-143v572h-178v142h499v-142h-178v-572z"/>
<glyph glyph-name="Tbar" horiz-adv-x="547" unicode="Ŧ" d="M99 244v120h99v208h-178v142h499v-142h-178v-208h106v-120h-106v-244h-143v244h-99z"/>
<glyph glyph-name="tbar" horiz-adv-x="547" unicode="ŧ" d="M99 244v120h99v208h-178v142h499v-142h-178v-208h106v-120h-106v-244h-143v244h-99z"/>
<glyph glyph-name="Utilde" d="M251 777l-85 37q14 47 41.5 74t65.5 27h4q23 -1 57.5 -18.5t46.5 -17.5q20 0 35 28l84 -37q-30 -100 -108 -100h-4q-23 1 -57 18t-46 17q-21 0 -34 -28zM593 249q0 -120 -77 -187.5t-182 -67.5t-181.5 67.5t-76.5 187.5v466h143v-465q0 -53 34.5 -82.5t81.5 -29.5 t81.5 29.5t34.5 82.5v465h142v-466z" unicode="Ũ"/>
<glyph glyph-name="utilde" d="M251 777l-85 37q14 47 41.5 74t65.5 27h4q23 -1 57.5 -18.5t46.5 -17.5q20 0 35 28l84 -37q-30 -100 -108 -100h-4q-23 1 -57 18t-46 17q-21 0 -34 -28zM593 249q0 -120 -77 -187.5t-182 -67.5t-181.5 67.5t-76.5 187.5v466h143v-465q0 -53 34.5 -82.5t81.5 -29.5 t81.5 29.5t34.5 82.5v465h142v-466z" unicode="ũ"/>
<glyph glyph-name="Umacron" d="M207 777v117h255v-117h-255zM593 249q0 -120 -77 -187.5t-182 -67.5t-181.5 67.5t-76.5 187.5v466h143v-465q0 -53 34.5 -82.5t81.5 -29.5t81.5 29.5t34.5 82.5v465h142v-466z" unicode="Ū"/>
<glyph glyph-name="umacron" d="M207 777v117h255v-117h-255zM593 249q0 -120 -77 -187.5t-182 -67.5t-181.5 67.5t-76.5 187.5v466h143v-465q0 -53 34.5 -82.5t81.5 -29.5t81.5 29.5t34.5 82.5v465h142v-466z" unicode="ū"/>
<glyph glyph-name="Ubreve" d="M338 855q50 0 50 43h100q0 -2 0.5 -7t0.5 -8q0 -39 -15.5 -67t-40.5 -40.5t-48 -18t-47 -5.5q-22 0 -45 5.5t-48 18t-41 40t-16 66.5q0 2 0.5 8t0.5 8h100q0 -43 49 -43zM593 249q0 -120 -77 -187.5t-182 -67.5t-181.5 67.5t-76.5 187.5v466h143v-465q0 -53 34.5 -82.5 t81.5 -29.5t81.5 29.5t34.5 82.5v465h142v-466z" unicode="Ŭ"/>
<glyph glyph-name="ubreve" d="M338 855q50 0 50 43h100q0 -2 0.5 -7t0.5 -8q0 -39 -15.5 -67t-40.5 -40.5t-48 -18t-47 -5.5q-22 0 -45 5.5t-48 18t-41 40t-16 66.5q0 2 0.5 8t0.5 8h100q0 -43 49 -43zM593 249q0 -120 -77 -187.5t-182 -67.5t-181.5 67.5t-76.5 187.5v466h143v-465q0 -53 34.5 -82.5 t81.5 -29.5t81.5 29.5t34.5 82.5v465h142v-466z" unicode="ŭ"/>
<glyph glyph-name="Uring" d="M335 975q62 0 97 -34t35 -81t-35 -82t-97 -35t-96.5 34.5t-34.5 81.5t34.5 81.5t96.5 34.5zM336 901q-24 0 -37 -12.5t-13 -30.5t13.5 -31t36.5 -13t36.5 13t13.5 31t-13 30.5t-37 12.5zM593 249q0 -120 -77 -187.5t-182 -67.5t-181.5 67.5t-76.5 187.5v466h143v-465 q0 -53 34.5 -82.5t81.5 -29.5t81.5 29.5t34.5 82.5v465h142v-466z" unicode="Ů"/>
<glyph glyph-name="uring" d="M335 975q62 0 97 -34t35 -81t-35 -82t-97 -35t-96.5 34.5t-34.5 81.5t34.5 81.5t96.5 34.5zM336 901q-24 0 -37 -12.5t-13 -30.5t13.5 -31t36.5 -13t36.5 13t13.5 31t-13 30.5t-37 12.5zM593 249q0 -120 -77 -187.5t-182 -67.5t-181.5 67.5t-76.5 187.5v466h143v-465 q0 -53 34.5 -82.5t81.5 -29.5t81.5 29.5t34.5 82.5v465h142v-466z" unicode="ů"/>
<glyph glyph-name="Uhungarumlaut" d="M414 910h159l-87 -137h-118zM208 910h159l-87 -137h-118zM593 249q0 -120 -77 -187.5t-182 -67.5t-181.5 67.5t-76.5 187.5v466h143v-465q0 -53 34.5 -82.5t81.5 -29.5t81.5 29.5t34.5 82.5v465h142v-466z" unicode="Ű"/>
<glyph glyph-name="uhungarumlaut" d="M414 910h159l-87 -137h-118zM208 910h159l-87 -137h-118zM593 249q0 -120 -77 -187.5t-182 -67.5t-181.5 67.5t-76.5 187.5v466h143v-465q0 -53 34.5 -82.5t81.5 -29.5t81.5 29.5t34.5 82.5v465h142v-466z" unicode="ű"/>
<glyph glyph-name="Uogonek" d="M593 249q0 -118 -78 -188l3 1q-38 -33 -58.5 -74t-20.5 -76q0 -21 7 -35q9 -16 38 -16q21 0 34 7l9 -97q-43 -16 -87 -16q-80 0 -109 55q-15 27 -15 61q0 66 52 125q-22 -2 -34 -2q-105 0 -181.5 67t-76.5 188v466h143v-465q0 -53 34.5 -82.5t81.5 -29.5t81.5 29.5 t34.5 82.5v465h142v-466z" unicode="Ų"/>
<glyph glyph-name="uogonek" d="M593 249q0 -118 -78 -188l3 1q-38 -33 -58.5 -74t-20.5 -76q0 -21 7 -35q9 -16 38 -16q21 0 34 7l9 -97q-43 -16 -87 -16q-80 0 -109 55q-15 27 -15 61q0 66 52 125q-22 -2 -34 -2q-105 0 -181.5 67t-76.5 188v466h143v-465q0 -53 34.5 -82.5t81.5 -29.5t81.5 29.5 t34.5 82.5v465h142v-466z" unicode="ų"/>
<glyph glyph-name="Wcircumflex" horiz-adv-x="910" unicode="Ŵ" d="M665 767h-170l-41 49l-40 -49h-170l158 148h103zM299 -15l-293 730h161l144 -365l140 358h7l140 -358l144 365h161l-292 -727h-26l-131 317l-130 -320h-25z"/>
<glyph glyph-name="wcircumflex" horiz-adv-x="910" unicode="ŵ" d="M665 767h-170l-41 49l-40 -49h-170l158 148h103zM299 -15l-293 730h161l144 -365l140 358h7l140 -358l144 365h161l-292 -727h-26l-131 317l-130 -320h-25z"/>
<glyph glyph-name="Ycircumflex" horiz-adv-x="649" unicode="Ŷ" d="M527 776h-164l-40 49l-39 -49h-164l153 148h100zM255 0v322l-249 393h174l146 -246l146 246h175l-250 -393v-322h-142z"/>
<glyph glyph-name="ycircumflex" horiz-adv-x="649" unicode="ŷ" d="M527 776h-164l-40 49l-39 -49h-164l153 148h100zM255 0v322l-249 393h174l146 -246l146 246h175l-250 -393v-322h-142z"/>
<glyph glyph-name="Ydieresis" horiz-adv-x="649" unicode="Ÿ" d="M366 843q0 35 24 58.5t57 23.5q35 0 58.5 -23.5t23.5 -58.5q0 -34 -23.5 -57t-58.5 -24q-33 0 -57 23.5t-24 57.5zM119 843q0 35 24 58.5t57 23.5q35 0 58.5 -23.5t23.5 -58.5q0 -34 -23.5 -57.5t-58.5 -23.5q-34 1 -57.5 24t-23.5 57zM255 0v322l-249 393h174l146 -246 l146 246h175l-250 -393v-322h-142z"/>
<glyph glyph-name="Zacute" horiz-adv-x="535" unicode="Ź" d="M257 916h166l-92 -147h-122zM501 0h-479l258 576h-220v139h433q-86 -191 -258 -571h266v-144z"/>
<glyph glyph-name="zacute" horiz-adv-x="535" unicode="ź" d="M257 916h166l-92 -147h-122zM501 0h-479l258 576h-220v139h433q-86 -191 -258 -571h266v-144z"/>
<glyph glyph-name="Zdotaccent" horiz-adv-x="535" unicode="Ż" d="M282 928q41 0 63.5 -22.5t22.5 -53.5q0 -32 -23 -55t-63 -23t-63 23t-23 54t23 54t63 23zM501 0h-479l258 576h-220v139h433q-86 -191 -258 -571h266v-144z"/>
<glyph glyph-name="zdotaccent" horiz-adv-x="535" unicode="ż" d="M282 928q41 0 63.5 -22.5t22.5 -53.5q0 -32 -23 -55t-63 -23t-63 23t-23 54t23 54t63 23zM501 0h-479l258 576h-220v139h433q-86 -191 -258 -571h266v-144z"/>
<glyph glyph-name="Zcaron" horiz-adv-x="535" unicode="Ž" d="M323 892h155l-146 -128h-94l-143 128h153l37 -43zM501 0h-479l258 576h-220v139h433q-86 -191 -258 -571h266v-144z"/>
<glyph glyph-name="zcaron" horiz-adv-x="535" unicode="ž" d="M323 892h155l-146 -128h-94l-143 128h153l37 -43zM501 0h-479l258 576h-220v139h433q-86 -191 -258 -571h266v-144z"/>
<glyph glyph-name="longs" horiz-adv-x="475" unicode="ſ" d="M437 572h-214v-572h-143v715h357v-143z"/>
<glyph glyph-name="circumflex" horiz-adv-x="438" unicode="ˆ" d="M405 587h-152l-37 47l-36 -47h-151l141 140h92z"/>
<glyph glyph-name="caron" horiz-adv-x="447" unicode="ˇ" d="M253 717h152l-143 -140h-92l-141 140h151l36 -47z"/>
<glyph glyph-name="breve" horiz-adv-x="366" unicode="˘" d="M185 680q46 0 46 42h94q0 -2 0.5 -7t0.5 -8q0 -38 -14.5 -64.5t-38 -39.5t-45 -18t-43.5 -5q-21 0 -42.5 5t-45 17.5t-38.5 39.5t-15 65q0 3 0.5 8t0.5 7h94q0 -42 46 -42z"/>
<glyph glyph-name="dotaccent" horiz-adv-x="244" unicode="˙" d="M110 724q39 0 60 -23.5t21 -56.5t-21.5 -57t-59.5 -24t-59.5 24t-21.5 57q0 32 21.5 56t59.5 24z"/>
<glyph glyph-name="ring" horiz-adv-x="358" unicode="˚" d="M181 724q67 0 103.5 -40.5t36.5 -96.5t-37 -97.5t-103 -41.5q-65 0 -102 41t-37 97t37 97t102 41zM182 637q-25 0 -38.5 -15.5t-13.5 -36.5t13.5 -36.5t38.5 -15.5t39 16t14 37t-14 36t-39 15z"/>
<glyph glyph-name="ogonek" horiz-adv-x="318" unicode="˛" d="M124 13h99q-67 -83 -67 -128q0 -12 4 -20q7 -13 27 -13q21 0 43 11l9 -97q-43 -16 -87 -16q-80 0 -109 55q-12 23 -12 47q0 77 93 161z"/>
<glyph glyph-name="tilde" horiz-adv-x="443" unicode="˜" d="M135 586l-87 38q32 105 110 105h4q24 -1 59 -19t47 -18q22 0 36 29l86 -39q-14 -48 -42.5 -76t-68.5 -28h-4q-23 1 -58 19t-47 18q-22 0 -35 -29z"/>
<glyph glyph-name="hungarumlaut" horiz-adv-x="529" unicode="˝" d="M315 719h169l-93 -138h-125zM96 719h169l-93 -138h-125z"/>
<glyph glyph-name="endash" horiz-adv-x="538" unicode="–" d="M38 275v133h452v-133h-452z"/>
<glyph glyph-name="emdash" horiz-adv-x="618" unicode="—" d="M38 275v133h541v-133h-541z"/>
<glyph glyph-name="quoteleft" horiz-adv-x="224" unicode="‘" d="M159 502h-144l76 213h109z"/>
<glyph glyph-name="quoteright" horiz-adv-x="209" unicode="’" d="M56 716h144l-76 -213h-109z"/>
<glyph glyph-name="quotesinglbase" horiz-adv-x="240" unicode="‚" d="M57 110h148l-78 -226h-112z"/>
<glyph glyph-name="quotedblleft" horiz-adv-x="394" unicode="“" d="M337 502h-135l67 213h109zM153 502h-138l76 213h109z"/>
<glyph glyph-name="quotedblright" horiz-adv-x="394" unicode="”" d="M52 714h135l-67 -213h-109zM236 714h138l-76 -213h-109z"/>
<glyph glyph-name="quotedblbase" horiz-adv-x="455" unicode="„" d="M279 110h148l-78 -226h-112zM57 110h148l-78 -226h-112z"/>
<glyph glyph-name="bullet" horiz-adv-x="293" unicode="•" d="M142 467q59 0 92 -36.5t33 -85.5q0 -50 -33.5 -87t-91.5 -37t-90.5 36.5t-32.5 86.5t32.5 86.5t90.5 36.5z"/>
<glyph glyph-name="Euro" horiz-adv-x="511" unicode="€" d="M-5 241v91h62q-1 15 -1 46h-61v91h72q31 112 120.5 183.5t227.5 71.5q31 0 55 -4l-8 -144q-28 4 -47 4q-132 0 -187 -111h133v-91h-156v-13q0 -11 2 -33h154v-91h-124q58 -97 181 -97q28 0 56 5l9 -146q-37 -5 -65 -5q-134 0 -223 68t-123 175h-77z"/>
</font>
</defs>
</svg>
